<svg width="22" height="22" viewBox="0 0 22 22" fill="none" xmlns="http://www.w3.org/2000/svg">
<mask id="path-1-inside-1" fill="white">
<path fill-rule="evenodd" clip-rule="evenodd" d="M2 0C0.895431 0 0 0.89543 0 2V20C0 21.1046 0.89543 22 2 22H20C21.1046 22 22 21.1046 22 20V2C22 0.895431 21.1046 0 20 0H2ZM18.0889 8.03162C18.6587 7.43022 18.633 6.48082 18.0316 5.91107C17.4302 5.34132 16.4808 5.36698 15.9111 5.96838L9.30114 12.9455L5.96152 10.1564C5.32568 9.62537 4.37974 9.71033 3.84871 10.3462C3.31767 10.982 3.40264 11.928 4.03848 12.459L8.45953 16.1513L9.54096 17.0545L10.51 16.0316L18.0889 8.03162Z"/>
</mask>
<path fill-rule="evenodd" clip-rule="evenodd" d="M2 0C0.895431 0 0 0.89543 0 2V20C0 21.1046 0.89543 22 2 22H20C21.1046 22 22 21.1046 22 20V2C22 0.895431 21.1046 0 20 0H2ZM18.0889 8.03162C18.6587 7.43022 18.633 6.48082 18.0316 5.91107C17.4302 5.34132 16.4808 5.36698 15.9111 5.96838L9.30114 12.9455L5.96152 10.1564C5.32568 9.62537 4.37974 9.71033 3.84871 10.3462C3.31767 10.982 3.40264 11.928 4.03848 12.459L8.45953 16.1513L9.54096 17.0545L10.51 16.0316L18.0889 8.03162Z" fill="#5D88FC"/>
<path d="M18.0316 5.91107L18.7194 5.18512V5.18512L18.0316 5.91107ZM18.0889 8.03162L17.363 7.34387V7.34387L18.0889 8.03162ZM15.9111 5.96838L16.637 6.65613L16.637 6.65613L15.9111 5.96838ZM9.30114 12.9455L8.66013 13.7131L9.38108 14.3152L10.0271 13.6333L9.30114 12.9455ZM5.96152 10.1564L5.32051 10.9239H5.32051L5.96152 10.1564ZM3.84871 10.3462L4.61623 10.9872L4.61624 10.9872L3.84871 10.3462ZM4.03848 12.459L4.67949 11.6915L4.03848 12.459ZM8.45953 16.1513L9.10055 15.3838L8.45953 16.1513ZM9.54096 17.0545L8.89995 17.822L9.62091 18.4241L10.2669 17.7422L9.54096 17.0545ZM10.51 16.0316L9.78403 15.3439V15.3439L10.51 16.0316ZM1 2C1 1.44772 1.44771 1 2 1V-1C0.343146 -1 -1 0.343145 -1 2H1ZM1 20V2H-1V20H1ZM2 21C1.44772 21 1 20.5523 1 20H-1C-1 21.6569 0.343144 23 2 23V21ZM20 21H2V23H20V21ZM21 20C21 20.5523 20.5523 21 20 21V23C21.6569 23 23 21.6569 23 20H21ZM21 2V20H23V2H21ZM20 1C20.5523 1 21 1.44772 21 2H23C23 0.343146 21.6569 -1 20 -1V1ZM2 1H20V-1H2V1ZM17.3439 6.63702C17.5443 6.82694 17.5529 7.14341 17.363 7.34387L18.8149 8.71936C19.7645 7.71703 19.7217 6.13469 18.7194 5.18512L17.3439 6.63702ZM16.637 6.65613C16.8269 6.45566 17.1434 6.44711 17.3439 6.63702L18.7194 5.18512C17.717 4.23554 16.1347 4.27831 15.1851 5.28064L16.637 6.65613ZM10.0271 13.6333L16.637 6.65613L15.1851 5.28064L8.57519 12.2578L10.0271 13.6333ZM5.32051 10.9239L8.66013 13.7131L9.94215 12.178L6.60253 9.38887L5.32051 10.9239ZM4.61624 10.9872C4.79325 10.7752 5.10856 10.7469 5.32051 10.9239L6.60253 9.38887C5.5428 8.50381 3.96623 8.64542 3.08118 9.70516L4.61624 10.9872ZM4.67949 11.6915C4.46755 11.5144 4.43922 11.1991 4.61623 10.9872L3.08118 9.70516C2.19612 10.7649 2.33773 12.3415 3.39747 13.2265L4.67949 11.6915ZM9.10055 15.3838L4.67949 11.6915L3.39747 13.2265L7.81852 16.9188L9.10055 15.3838ZM10.182 16.2869L9.10055 15.3838L7.81852 16.9188L8.89995 17.822L10.182 16.2869ZM9.78403 15.3439L8.81501 16.3667L10.2669 17.7422L11.2359 16.7194L9.78403 15.3439ZM17.363 7.34387L9.78403 15.3439L11.2359 16.7194L18.8149 8.71936L17.363 7.34387Z" fill="#5D88FC" mask="url(#path-1-inside-1)"/>
</svg>
