<svg width="604" height="472" viewBox="0 0 604 472" fill="none" xmlns="http://www.w3.org/2000/svg">
<g filter="url(#filter0_d)">
<path d="M114.358 327.991L489.416 327.668C495.065 327.663 499.777 322.943 499.783 316.969L499.991 75.8211C499.996 69.8474 495.292 65.1354 489.643 65.1403L114.584 65.4635C108.935 65.4684 104.223 70.1885 104.218 76.1621L104.01 317.31C104.004 323.126 108.708 327.996 114.358 327.991Z" fill="white"/>
<path fill-rule="evenodd" clip-rule="evenodd" d="M445.303 297.73C434.355 291.462 427.637 279.697 427.648 266.984L427.77 125.422C427.781 112.71 434.52 101.09 445.479 94.646L494.313 66.2731C492.436 64.5483 488.849 64.0048 486.033 64.0072L114.868 64.3275C109.079 64.3325 104.224 68.888 104.219 74.5379L104.159 144.534L127.775 158.325C133.249 161.459 136.686 167.42 136.681 173.698L136.642 219.211C136.636 225.646 133.189 231.456 127.709 234.599L104.069 248.274L104.009 317.799C104.004 323.449 108.851 327.996 114.641 327.991L485.805 327.671C488.465 327.669 491.641 327.531 493.52 325.96C477.75 316.083 461.42 307.049 445.303 297.73Z" fill="url(#paint0_linear)"/>
<path d="M178.403 104.134C178.921 104.134 179.342 103.712 179.343 103.192C179.343 102.672 178.923 102.251 178.404 102.251C177.886 102.252 177.465 102.674 177.465 103.194C177.464 103.714 177.884 104.135 178.403 104.134Z" fill="white"/>
<path d="M195.775 104.119C196.293 104.119 196.714 103.697 196.715 103.177C196.715 102.657 196.295 102.236 195.776 102.236C195.258 102.237 194.837 102.659 194.837 103.178C194.836 103.698 195.256 104.12 195.775 104.119Z" fill="white"/>
<path d="M211.888 104.106C212.406 104.105 212.827 103.683 212.828 103.163C212.828 102.644 212.408 102.222 211.889 102.223C211.371 102.223 210.95 102.645 210.949 103.165C210.949 103.685 211.369 104.106 211.888 104.106Z" fill="white"/>
<path d="M178.106 86.5563C178.625 86.5559 179.046 86.134 179.046 85.6141C179.047 85.0942 178.627 84.6731 178.108 84.6735C177.589 84.674 177.169 85.0958 177.168 85.6157C177.168 86.1357 177.588 86.5568 178.106 86.5563Z" fill="white"/>
<path d="M195.472 86.6962C195.99 86.6958 196.411 86.2739 196.412 85.754C196.412 85.2341 195.992 84.813 195.473 84.8134C194.955 84.8138 194.534 85.2357 194.533 85.7556C194.533 86.2756 194.953 86.6967 195.472 86.6962Z" fill="white"/>
<path d="M211.591 86.5273C212.109 86.5268 212.53 86.105 212.531 85.5851C212.531 85.0651 212.111 84.644 211.592 84.6445C211.074 84.6449 210.653 85.0668 210.653 85.5867C210.652 86.1066 211.072 86.5277 211.591 86.5273Z" fill="white"/>
<path d="M178.388 121.558C178.906 121.558 179.327 121.136 179.328 120.616C179.328 120.096 178.908 119.675 178.389 119.675C177.871 119.676 177.45 120.098 177.449 120.617C177.449 121.137 177.869 121.558 178.388 121.558Z" fill="white"/>
<path d="M195.76 121.543C196.278 121.542 196.699 121.121 196.7 120.601C196.7 120.081 196.28 119.66 195.761 119.66C195.243 119.661 194.822 120.082 194.821 120.602C194.821 121.122 195.241 121.543 195.76 121.543Z" fill="white"/>
<path d="M211.873 121.529C212.391 121.528 212.812 121.106 212.812 120.587C212.813 120.067 212.393 119.645 211.874 119.646C211.355 119.646 210.935 120.068 210.934 120.588C210.934 121.108 211.354 121.529 211.873 121.529Z" fill="white"/>
<path d="M178.373 138.977C178.891 138.977 179.312 138.555 179.312 138.035C179.313 137.515 178.893 137.094 178.374 137.094C177.855 137.095 177.435 137.517 177.434 138.037C177.434 138.557 177.854 138.978 178.373 138.977Z" fill="white"/>
<path d="M195.745 138.962C196.264 138.961 196.685 138.54 196.685 138.02C196.685 137.5 196.265 137.079 195.747 137.079C195.228 137.079 194.807 137.501 194.807 138.021C194.806 138.541 195.226 138.962 195.745 138.962Z" fill="white"/>
<path d="M211.857 138.949C212.376 138.948 212.797 138.526 212.797 138.006C212.798 137.487 212.378 137.065 211.859 137.066C211.34 137.066 210.92 137.488 210.919 138.008C210.919 138.528 211.339 138.949 211.857 138.949Z" fill="white"/>
<path d="M178.357 156.397C178.876 156.396 179.297 155.974 179.297 155.454C179.298 154.935 178.878 154.513 178.359 154.514C177.84 154.514 177.42 154.936 177.419 155.456C177.419 155.976 177.839 156.397 178.357 156.397Z" fill="white"/>
<path d="M195.729 156.537C196.248 156.536 196.669 156.114 196.669 155.594C196.67 155.074 196.25 154.653 195.731 154.654C195.212 154.654 194.792 155.076 194.791 155.596C194.791 156.116 195.211 156.537 195.729 156.537Z" fill="white"/>
<path d="M211.842 156.368C212.361 156.367 212.782 155.946 212.782 155.426C212.783 154.906 212.362 154.485 211.844 154.485C211.325 154.485 210.904 154.907 210.904 155.427C210.904 155.947 211.324 156.368 211.842 156.368Z" fill="white"/>
<path d="M178.405 99.5793C178.923 99.5788 179.344 99.157 179.345 98.6371C179.345 98.1171 178.925 97.696 178.406 97.6965C177.888 97.6969 177.467 98.1188 177.466 98.6387C177.466 99.1586 177.886 99.5797 178.405 99.5793Z" fill="white"/>
<path d="M195.777 99.7231C196.295 99.7226 196.716 99.3008 196.717 98.7809C196.717 98.2609 196.297 97.8398 195.778 97.8403C195.26 97.8407 194.839 98.2626 194.839 98.7825C194.838 99.3024 195.258 99.7235 195.777 99.7231Z" fill="white"/>
<path d="M211.894 99.5505C212.412 99.55 212.833 99.1282 212.833 98.6083C212.834 98.0883 212.414 97.6672 211.895 97.6676C211.376 97.6681 210.956 98.0899 210.955 98.6099C210.955 99.1298 211.375 99.5509 211.894 99.5505Z" fill="white"/>
<path d="M178.112 82.1603C178.63 82.1599 179.051 81.7381 179.052 81.2181C179.052 80.6982 178.632 80.2771 178.113 80.2775C177.595 80.278 177.174 80.6998 177.174 81.2197C177.173 81.7397 177.593 82.1608 178.112 82.1603Z" fill="white"/>
<path d="M195.478 82.1452C195.997 82.1448 196.417 81.7229 196.418 81.203C196.418 80.6831 195.998 80.2619 195.48 80.2624C194.961 80.2628 194.54 80.6847 194.54 81.2046C194.539 81.7245 194.959 82.1457 195.478 82.1452Z" fill="white"/>
<path d="M211.597 82.1313C212.115 82.1308 212.536 81.709 212.537 81.1891C212.537 80.6691 212.117 80.248 211.598 80.2485C211.08 80.2489 210.659 80.6708 210.658 81.1907C210.658 81.7106 211.078 82.1317 211.597 82.1313Z" fill="white"/>
<path d="M178.39 116.999C178.908 116.999 179.329 116.577 179.329 116.057C179.33 115.537 178.91 115.116 178.391 115.116C177.873 115.117 177.452 115.538 177.451 116.058C177.451 116.578 177.871 116.999 178.39 116.999Z" fill="white"/>
<path d="M195.762 117.147C196.28 117.146 196.701 116.725 196.702 116.205C196.702 115.685 196.282 115.264 195.763 115.264C195.245 115.265 194.824 115.686 194.823 116.206C194.823 116.726 195.243 117.147 195.762 117.147Z" fill="white"/>
<path d="M211.878 116.97C212.397 116.969 212.818 116.547 212.818 116.027C212.819 115.508 212.399 115.086 211.88 115.087C211.361 115.087 210.941 115.509 210.94 116.029C210.94 116.549 211.36 116.97 211.878 116.97Z" fill="white"/>
<path d="M178.374 134.581C178.893 134.581 179.314 134.159 179.314 133.639C179.315 133.119 178.895 132.698 178.376 132.698C177.857 132.699 177.437 133.12 177.436 133.64C177.436 134.16 177.856 134.581 178.374 134.581Z" fill="white"/>
<path d="M195.747 134.566C196.266 134.566 196.686 134.144 196.687 133.624C196.687 133.104 196.267 132.683 195.749 132.683C195.23 132.684 194.809 133.106 194.809 133.626C194.808 134.145 195.228 134.567 195.747 134.566Z" fill="white"/>
<path d="M211.864 134.553C212.382 134.552 212.803 134.13 212.804 133.61C212.804 133.091 212.384 132.669 211.865 132.67C211.347 132.67 210.926 133.092 210.925 133.612C210.925 134.132 211.345 134.553 211.864 134.553Z" fill="white"/>
<path d="M178.36 151.999C178.878 151.999 179.299 151.577 179.3 151.057C179.3 150.537 178.88 150.116 178.361 150.116C177.843 150.117 177.422 150.538 177.422 151.058C177.421 151.578 177.841 151.999 178.36 151.999Z" fill="white"/>
<path d="M195.731 151.983C196.25 151.983 196.671 151.561 196.671 151.041C196.672 150.521 196.252 150.1 195.733 150.101C195.214 150.101 194.794 150.523 194.793 151.043C194.793 151.563 195.213 151.984 195.731 151.983Z" fill="white"/>
<path d="M211.849 151.97C212.367 151.97 212.788 151.548 212.788 151.028C212.789 150.508 212.369 150.087 211.85 150.088C211.332 150.088 210.911 150.51 210.91 151.03C210.91 151.55 211.33 151.971 211.849 151.97Z" fill="white"/>
<path d="M178.259 272.059C178.777 272.058 179.198 271.636 179.199 271.116C179.199 270.596 178.779 270.175 178.26 270.176C177.742 270.176 177.321 270.598 177.32 271.118C177.32 271.638 177.74 272.059 178.259 272.059Z" fill="white"/>
<path d="M195.629 272.044C196.148 272.043 196.569 271.621 196.569 271.101C196.57 270.581 196.15 270.16 195.631 270.161C195.112 270.161 194.692 270.583 194.691 271.103C194.691 271.623 195.111 272.044 195.629 272.044Z" fill="white"/>
<path d="M211.744 272.03C212.262 272.03 212.683 271.608 212.683 271.088C212.684 270.568 212.264 270.147 211.745 270.147C211.227 270.148 210.806 270.569 210.805 271.089C210.805 271.609 211.225 272.03 211.744 272.03Z" fill="white"/>
<path d="M177.962 254.483C178.481 254.482 178.901 254.06 178.902 253.54C178.902 253.02 178.482 252.599 177.963 252.6C177.445 252.6 177.024 253.022 177.024 253.542C177.023 254.062 177.443 254.483 177.962 254.483Z" fill="white"/>
<path d="M195.331 254.624C195.849 254.624 196.27 254.202 196.27 253.682C196.271 253.162 195.851 252.741 195.332 252.742C194.814 252.742 194.393 253.164 194.392 253.684C194.392 254.204 194.812 254.625 195.331 254.624Z" fill="white"/>
<path d="M211.447 254.453C211.965 254.453 212.386 254.031 212.387 253.511C212.387 252.991 211.967 252.57 211.448 252.57C210.93 252.571 210.509 252.993 210.508 253.513C210.508 254.033 210.928 254.454 211.447 254.453Z" fill="white"/>
<path d="M178.244 289.484C178.762 289.483 179.183 289.061 179.183 288.541C179.184 288.021 178.764 287.6 178.245 287.601C177.727 287.601 177.306 288.023 177.305 288.543C177.305 289.063 177.725 289.484 178.244 289.484Z" fill="white"/>
<path d="M195.614 289.469C196.132 289.469 196.553 289.047 196.554 288.527C196.554 288.007 196.134 287.586 195.615 287.586C195.097 287.587 194.676 288.008 194.675 288.528C194.675 289.048 195.095 289.469 195.614 289.469Z" fill="white"/>
<path d="M211.728 289.455C212.247 289.454 212.668 289.032 212.668 288.513C212.669 287.993 212.249 287.571 211.73 287.572C211.211 287.572 210.791 287.994 210.79 288.514C210.79 289.034 211.21 289.455 211.728 289.455Z" fill="white"/>
<path d="M178.228 306.903C178.747 306.903 179.168 306.481 179.168 305.961C179.169 305.441 178.749 305.02 178.23 305.02C177.711 305.021 177.291 305.443 177.29 305.963C177.29 306.483 177.71 306.904 178.228 306.903Z" fill="white"/>
<path d="M195.599 306.888C196.118 306.888 196.539 306.466 196.539 305.946C196.539 305.426 196.119 305.005 195.601 305.005C195.082 305.006 194.661 305.428 194.661 305.948C194.66 306.467 195.08 306.889 195.599 306.888Z" fill="white"/>
<path d="M211.714 306.875C212.232 306.874 212.653 306.453 212.654 305.933C212.654 305.413 212.234 304.992 211.715 304.992C211.197 304.993 210.776 305.414 210.776 305.934C210.775 306.454 211.195 306.875 211.714 306.875Z" fill="white"/>
<path d="M180.074 167.696L178.664 169.11L177.256 169.111L177.257 168.169L178.039 168.169L179.919 166.284L180.858 166.283L180.848 178.053L179.909 178.054L179.918 167.696L180.074 167.696Z" fill="white"/>
<path d="M183.672 166.28L191.496 166.273L191.494 168.157L186.479 177.107L186.479 178.048L185.54 178.049L185.541 176.637L190.399 167.844L190.4 167.373L183.515 167.379L183.516 166.28L183.672 166.28Z" fill="white"/>
<path d="M194.473 166.271L201.358 166.265L201.358 167.207L195.568 167.212L195.565 170.194L199.947 170.19L201.979 172.072L201.976 175.995L200.097 177.88L196.185 177.883L194.308 176.002L195.092 175.216L196.811 176.941L199.784 176.939L201.194 175.525L201.196 172.543L199.789 171.132L195.877 171.135L195.251 171.763L194.469 171.136L194.939 170.665L194.943 166.271L194.473 166.271Z" fill="white"/>
<path d="M204.329 168.146L206.208 166.261L210.12 166.258L212.153 168.139L211.37 168.925L209.65 167.2L206.833 167.202L205.267 168.616L205.265 171.598L206.204 170.655L210.116 170.652L212.149 172.534L212.146 175.986L210.11 178.028L206.198 178.032L204.322 175.993L204.329 168.146ZM206.825 177.09L209.798 177.087L211.207 175.673L211.21 173.162L209.803 171.751L206.829 171.754L205.42 173.167L205.418 175.521L206.825 177.09Z" fill="white"/>
<path d="M177.079 193.755L178.489 192.341L177.551 190.929L177.553 189.046L179.432 187.161L182.405 187.159L184.282 189.04L184.28 190.924L183.34 192.337L184.747 193.748L184.744 196.73L182.708 198.772L178.796 198.775L176.92 196.737L177.079 193.755ZM178.016 196.265L179.423 197.676L182.396 197.674L183.806 196.26L183.808 194.22L182.557 192.808L179.584 192.811L178.018 194.225L178.016 196.265ZM178.491 190.301L179.428 191.713L182.401 191.71L183.342 190.297L183.342 189.355L181.935 187.944L180.058 187.945L178.648 189.359L178.647 190.301L178.491 190.301Z" fill="white"/>
<path d="M187.412 186.836L195.235 186.83L195.234 188.713L190.375 197.506L190.375 198.448L189.436 198.448L189.437 197.036L194.295 188.243L194.296 187.772L187.411 187.778L187.412 186.836Z" fill="white"/>
<path d="M197.891 188.867L199.77 186.982L203.682 186.979L205.715 188.86L204.932 189.646L203.212 187.921L200.395 187.923L198.829 189.337L198.827 192.319L199.923 191.22L203.835 191.216L205.868 193.098L205.865 196.551L203.829 198.593L199.917 198.596L198.041 196.557L198.047 188.867L197.891 188.867ZM200.387 197.654L203.36 197.651L204.77 196.238L204.772 193.726L203.365 192.315L200.392 192.318L198.982 193.731L198.98 196.243L200.387 197.654Z" fill="white"/>
<path d="M211.193 188.385L209.784 189.799L208.375 189.8L208.376 188.858L209.315 188.858L211.195 186.973L212.134 186.972L212.124 198.743L211.184 198.743L211.193 188.385Z" fill="white"/>
<path d="M177.058 214.471L181.914 208.503L181.915 207.561L182.854 207.56L182.847 215.408L184.725 215.406L184.724 216.348L182.846 216.349L182.843 219.331L181.905 219.332L181.907 216.35L177.056 216.354L177.058 214.471ZM177.996 214.941L177.996 215.412L181.908 215.408L181.913 210.072L177.996 214.941Z" fill="white"/>
<path d="M188.483 215.403L188.481 216.815L189.888 218.227L192.862 218.224L194.271 216.81L194.273 214.77L192.866 213.359L190.362 213.361L190.363 212.419L192.867 212.417L193.807 211.004L193.807 210.062L192.401 208.494L189.897 208.496L188.487 209.91L188.486 211.322L187.391 211.323L187.392 209.44L189.272 207.555L192.714 207.552L194.59 209.434L194.589 211.317L193.649 212.73L195.056 214.142L195.053 217.124L193.017 219.166L189.105 219.169L187.386 217.287L187.387 215.404L188.483 215.403Z" fill="white"/>
<path d="M200.85 208.957L199.44 210.371L198.031 210.372L198.032 209.43L198.971 209.429L200.851 207.544L201.79 207.544L201.78 219.314L200.841 219.315L200.85 208.957Z" fill="white"/>
<path d="M212.111 217.26L210.231 219.144L206.319 219.148L204.287 217.266L205.07 216.481L206.79 218.206L209.606 218.203L211.172 216.79L211.175 213.808L210.235 214.75L206.323 214.753L204.291 212.872L204.294 209.419L206.33 207.377L210.242 207.374L212.118 209.412L212.111 217.26ZM209.771 208.473L206.798 208.475L205.389 209.889L205.386 212.4L206.793 213.811L209.767 213.809L211.176 212.395L211.178 209.884L209.771 208.473Z" fill="white"/>
<path d="M175.008 235.026L176.417 233.612L175.48 232.2L175.481 230.317L177.361 228.432L180.334 228.43L182.21 230.311L182.208 232.195L181.268 233.608L182.675 235.019L182.673 238.001L180.637 240.043L176.725 240.046L174.849 238.008L175.008 235.026ZM176.101 237.536L177.508 238.947L180.481 238.945L181.891 237.531L181.892 235.491L180.485 234.079L177.512 234.082L175.946 235.496L175.944 237.536L176.101 237.536ZM176.575 231.572L177.513 232.983L180.486 232.981L181.426 231.568L181.427 230.626L180.02 229.215L177.986 229.216L176.576 230.63L176.575 231.572Z" fill="white"/>
<path d="M193.312 237.996L191.433 239.881L187.521 239.884L185.489 238.002L186.272 237.217L187.991 238.942L190.808 238.939L192.374 237.526L192.377 234.544L191.437 235.486L187.525 235.49L185.492 233.608L185.495 230.155L187.531 228.113L191.443 228.11L193.319 230.149L193.312 237.996ZM190.816 229.209L187.843 229.212L186.434 230.625L186.432 233.136L187.839 234.548L190.812 234.545L192.221 233.131L192.223 230.62L190.816 229.209Z" fill="white"/>
<path d="M202.708 231.553L202.708 230.612L201.301 229.2L198.328 229.203L196.919 230.617L196.918 232.029L195.979 232.03L195.98 230.147L197.86 228.262L201.772 228.258L203.804 230.297L203.802 232.337L196.912 238.778L196.911 239.248L203.796 239.242L203.795 240.184L195.972 240.191L195.973 238.151L202.708 231.553Z" fill="white"/>
<path d="M213.19 231.544L213.191 230.602L211.784 229.191L208.811 229.193L207.401 230.607L207.4 232.019L206.461 232.02L206.463 230.137L208.342 228.252L212.254 228.249L214.286 230.287L214.285 232.327L207.394 238.768L207.394 239.239L214.279 239.233L214.278 240.175L206.454 240.181L206.456 238.141L213.19 231.544Z" fill="white"/>
<path fill-rule="evenodd" clip-rule="evenodd" d="M465.212 122.88L465.207 128.373C465.207 128.687 465.05 129.001 464.894 129.158C464.737 129.315 464.424 129.472 464.111 129.472L454.566 129.48L454.409 129.481C454.253 129.481 454.253 129.481 454.096 129.481C453.94 129.481 453.784 129.481 453.784 129.324C453.627 129.167 453.627 129.01 453.628 128.853L453.633 122.733C453.633 122.419 453.79 122.262 453.946 122.105C454.103 121.948 454.259 121.947 454.572 121.947C454.729 121.947 455.042 121.947 455.198 122.104C455.355 122.26 455.511 122.417 455.511 122.731L455.507 127.125C455.507 127.439 455.819 127.596 455.976 127.596L458.323 127.594C458.636 127.594 458.793 127.437 458.793 127.123L458.796 123.827C458.796 123.67 458.796 123.513 458.796 123.513C458.796 123.356 458.953 123.356 458.953 123.199C459.109 123.042 459.109 123.042 459.266 123.042C459.422 123.042 459.579 123.041 459.735 123.041C459.892 123.041 460.048 123.198 460.204 123.355C460.361 123.512 460.361 123.669 460.36 123.826L460.358 127.121C460.357 127.435 460.67 127.592 460.827 127.592L463.017 127.59C463.33 127.59 463.487 127.276 463.487 127.119L463.491 122.881C463.491 122.724 463.491 122.567 463.491 122.567C463.491 122.41 463.648 122.41 463.648 122.253C463.648 122.096 463.804 122.096 463.961 122.096C464.117 122.096 464.274 121.939 464.274 121.939C464.587 121.939 464.743 122.095 464.9 122.252C465.056 122.409 465.212 122.723 465.212 122.88Z" fill="#191B26"/>
<path fill-rule="evenodd" clip-rule="evenodd" d="M465.195 142.966C465.194 143.28 465.038 143.437 464.881 143.594C464.725 143.751 464.412 143.751 464.255 143.751L454.554 143.76L454.397 143.76C454.241 143.76 454.241 143.76 454.084 143.76C453.928 143.76 453.771 143.76 453.771 143.604C453.615 143.447 453.615 143.29 453.615 143.133L453.621 136.384C453.621 136.384 453.621 136.227 453.621 136.07C453.621 135.913 453.621 135.913 453.778 135.756C453.778 135.599 453.935 135.599 454.091 135.599C454.248 135.599 454.404 135.442 454.561 135.442C454.717 135.442 454.874 135.442 454.874 135.442C455.03 135.441 455.03 135.598 455.186 135.598C455.03 136.069 455.03 136.069 455.029 136.226C455.029 136.383 455.029 136.383 455.029 136.54L455.025 141.719C455.025 141.876 455.181 142.033 455.337 142.033L458.467 142.03L458.469 139.205C458.47 139.048 458.47 139.048 458.47 138.891C458.47 138.734 458.626 138.734 458.626 138.577C458.627 138.42 458.783 138.42 458.939 138.42C459.096 138.42 459.096 138.263 459.253 138.263C459.409 138.263 459.566 138.262 459.566 138.262C459.722 138.262 459.722 138.419 459.878 138.419C459.878 138.576 460.035 138.576 460.035 138.733C460.034 138.89 460.034 138.89 460.034 139.047L460.032 141.401C460.032 141.715 460.345 141.871 460.501 141.871L463.787 141.869C463.944 141.868 463.944 141.868 464.1 141.868C464.257 141.868 464.257 142.025 464.413 142.025C464.57 142.025 464.569 142.182 464.569 142.339C465.195 142.652 465.195 142.809 465.195 142.966Z" fill="#191B26"/>
<path fill-rule="evenodd" clip-rule="evenodd" d="M454.956 221.605L454.486 222.547L453.389 224.431L453.076 224.902C452.762 225.53 452.762 226.315 453.074 226.943L455.262 230.707C455.574 231.335 456.356 231.805 456.982 231.805L461.207 231.801C461.989 231.8 462.615 231.329 462.929 230.701L464.026 228.817C464.183 228.503 464.026 228.189 463.87 227.718L463.089 226.463L461.679 228.976C461.365 229.447 461.052 229.604 460.583 229.604L457.61 229.607C457.14 229.607 456.671 229.294 456.515 228.98L454.952 226.313C454.796 225.843 454.797 225.372 454.954 224.901L455.11 224.587L456.051 223.017C456.051 223.017 456.051 223.017 456.051 222.86C456.051 222.703 456.051 222.546 456.051 222.389L455.426 221.291C455.583 221.291 455.113 221.291 454.956 221.605Z" fill="#191B26"/>
<path fill-rule="evenodd" clip-rule="evenodd" d="M460.901 220.344C460.588 220.345 460.432 220.659 460.588 220.972L462.619 224.423L464.338 227.247C464.651 227.717 464.65 228.031 464.337 228.502L465.121 227.089C465.434 226.461 465.435 225.677 465.122 224.892C465.123 224.735 464.966 224.735 464.966 224.578L464.185 223.323L463.872 222.853L463.716 222.539L462.779 220.971C462.622 220.657 462.153 220.5 461.84 220.501L460.901 220.344Z" fill="#191B26"/>
<path fill-rule="evenodd" clip-rule="evenodd" d="M465.162 182.517C465.162 182.831 465.005 182.988 464.849 183.145C464.692 183.302 464.535 183.459 464.222 183.459L459.997 183.463L454.987 187.548C454.83 187.705 454.674 187.705 454.361 187.705C454.204 187.705 453.891 187.705 453.735 187.392C453.579 187.235 453.579 187.235 453.579 187.078C453.422 186.921 453.423 186.607 453.579 186.45C453.579 186.293 453.736 186.293 453.736 186.136L457.964 182.68C458.277 182.366 458.434 182.209 458.121 182.052L453.742 178.76C453.586 178.603 453.586 178.603 453.586 178.446C453.43 178.289 453.43 177.975 453.587 177.818C453.587 177.661 453.743 177.661 453.744 177.504C453.9 177.347 454.057 177.19 454.37 177.19C454.526 177.19 454.839 177.189 454.995 177.346L459.999 181.422L464.224 181.419C464.537 181.419 464.85 181.575 465.006 181.732C465.006 182.046 465.162 182.203 465.162 182.517Z" fill="#191B26"/>
<path fill-rule="evenodd" clip-rule="evenodd" d="M465.137 210.924C465.137 211.081 465.137 211.238 464.98 211.395C464.98 211.552 464.824 211.552 464.824 211.709C464.667 211.709 464.667 211.866 464.511 211.866C464.354 211.866 464.354 211.866 464.198 211.866L454.339 211.875L454.183 211.875C454.027 211.875 454.027 211.875 453.87 211.875C453.714 211.875 453.557 211.875 453.557 211.718C453.557 211.561 453.401 211.405 453.401 211.248C453.401 210.934 453.402 210.62 453.558 210.463C453.715 210.306 453.872 210.149 454.184 210.149L464.043 210.14C464.199 210.14 464.199 210.14 464.356 210.14C464.512 210.14 464.512 210.297 464.668 210.297C464.825 210.296 464.825 210.453 464.825 210.61C465.137 210.61 465.137 210.767 465.137 210.924Z" fill="#191B26"/>
<path fill-rule="evenodd" clip-rule="evenodd" d="M465.187 153.636C465.187 153.793 465.186 153.95 465.03 154.107C465.03 154.264 464.873 154.264 464.873 154.421C464.717 154.421 464.717 154.578 464.56 154.578C464.404 154.579 464.404 154.579 464.247 154.579L454.389 154.587L454.233 154.587C454.076 154.587 454.076 154.587 453.92 154.588C453.763 154.588 453.607 154.588 453.607 154.431C453.607 154.274 453.451 154.117 453.451 153.96C453.451 153.647 453.451 153.333 453.608 153.176C453.764 153.019 453.921 152.862 454.234 152.861L464.092 152.853C464.249 152.853 464.249 152.853 464.405 152.853C464.562 152.852 464.561 153.009 464.718 153.009C464.874 153.009 464.874 153.166 464.874 153.323C465.187 153.323 465.187 153.48 465.187 153.636Z" fill="#191B26"/>
<path d="M465.148 198.215C465.148 198.529 464.991 198.686 464.835 198.843C464.678 199 464.521 199.157 464.208 199.157L455.602 199.165C455.446 199.165 455.289 199.322 455.289 199.479L455.287 202.147C455.286 202.461 455.13 202.618 454.973 202.775C454.817 202.932 454.66 203.089 454.347 203.089C454.19 203.09 453.878 202.933 453.721 202.776C453.565 202.619 453.409 202.306 453.409 202.149L453.416 194.302C453.416 193.988 453.416 193.831 453.573 193.674C453.729 193.517 453.886 193.359 454.199 193.359C454.512 193.359 454.668 193.516 454.825 193.673C454.981 193.829 455.137 194.143 455.137 194.3L455.135 196.968C455.135 197.125 455.291 197.282 455.447 197.282L464.054 197.274C464.367 197.274 464.523 197.431 464.679 197.588C464.992 197.744 465.148 197.901 465.148 198.215Z" fill="#191B26"/>
<path fill-rule="evenodd" clip-rule="evenodd" d="M463.451 168.707L463.456 162.587L463.451 168.707C463.45 169.021 463.294 169.335 463.137 169.492C462.98 169.492 462.511 169.493 462.511 169.493C462.824 169.179 462.824 169.179 462.825 168.708L462.825 167.766L454.689 167.773C454.219 167.774 453.906 167.931 453.75 168.088C453.593 168.245 453.436 168.559 453.436 168.873C453.436 169.187 453.436 169.344 453.592 169.344C453.748 169.5 453.748 169.5 453.905 169.5C454.061 169.5 454.061 169.5 454.218 169.5C454.218 169.5 454.374 169.5 454.218 169.5L463.919 169.492C464.389 169.491 464.702 169.334 464.858 169.177C465.015 169.02 465.172 168.706 465.172 168.392L465.177 162.585C465.177 162.428 465.178 162.114 465.021 161.957C464.865 161.801 464.709 161.644 464.396 161.644C464.239 161.644 464.083 161.644 464.082 161.801C463.926 161.801 463.926 161.958 463.769 161.959C463.769 162.115 463.613 162.116 463.613 162.273C463.612 162.43 463.612 162.43 463.612 162.586" fill="#191B26"/>
<path fill-rule="evenodd" clip-rule="evenodd" d="M444.129 257.709C444.121 266.341 451 273.24 459.607 273.233C468.213 273.225 475.104 266.314 475.111 257.682C475.119 249.05 468.24 242.151 459.633 242.158C451.027 242.165 444.136 249.234 444.129 257.709ZM467.129 259.572L464.629 255.494L461.66 250.474C461.348 250.161 461.661 249.533 462.131 249.532L463.382 249.531C464.008 249.531 464.478 249.844 464.79 250.315L466.196 252.511L466.509 253.138L466.978 253.922L468.071 255.648C468.228 255.805 468.228 255.962 468.384 256.275C468.853 257.217 468.852 258.315 468.381 259.414L467.441 261.141L467.597 260.984L467.284 261.455L467.284 261.612L466.971 262.083C466.971 261.926 466.97 262.24 466.971 262.083L465.403 264.753C464.933 265.695 463.837 266.324 462.742 266.325L456.483 266.33C455.388 266.331 454.449 265.704 453.824 264.763L450.699 259.429C450.231 258.488 450.232 257.39 450.702 256.448L451.015 255.819L452.582 253.15L453.366 251.894C453.523 251.58 454.149 251.579 454.305 251.893L455.242 253.462C455.399 253.618 455.398 253.932 455.242 254.089L455.242 254.246L453.988 256.602L453.831 256.916C453.517 257.544 453.517 258.171 453.829 258.956L456.017 262.721C456.329 263.348 456.955 263.661 457.737 263.661L462.118 263.657C462.744 263.656 463.527 263.342 463.84 262.714L466.034 258.945" fill="#191B26"/>
<path fill-rule="evenodd" clip-rule="evenodd" d="M465.72 258.474L466.814 260.199C467.127 260.67 467.126 261.297 466.969 261.768L467.283 261.297C467.596 260.669 467.597 260.042 467.128 259.415" fill="#191B26"/>
<path d="M121.273 212.635L121.271 215.146L120.019 215.147L120.024 208.869L121.276 208.868L121.274 211.379L127.69 211.374L127.688 212.786L121.273 212.792L121.273 212.635Z" fill="#191B26"/>
<path d="M120.027 205.885L120.032 200.235L121.284 200.234L121.28 204.628L123.314 204.626L123.318 200.703L124.57 200.702L124.566 204.625L126.6 204.624L126.604 200.229L127.856 200.228L127.851 206.035L120.027 206.042L120.027 205.885Z" fill="#191B26"/>
<path d="M120.037 194.27L120.039 193.014L127.709 189.555L127.708 190.967L125.829 191.754L125.826 195.363L127.703 196.147L127.702 197.559L120.037 194.27ZM124.733 192.382L121.603 193.641L124.731 194.894L124.733 192.382Z" fill="#191B26"/>
<path d="M120.045 186.738L120.046 185.325L123.647 182.968L120.05 180.617L120.051 179.205L127.719 179.198L127.717 180.61L122.241 180.615L125.838 182.966L122.237 185.323L127.713 185.319L127.712 186.574L120.045 186.581L120.045 186.738Z" fill="#191B26"/>
<ellipse rx="27.8633" ry="27.8438" transform="matrix(1 -0.000862226 -0.000863435 1 299.156 197.705)" fill="white"/>
<path fill-rule="evenodd" clip-rule="evenodd" d="M298.623 155.366C276.155 155.385 257.945 173.583 257.925 196.035C257.906 218.488 276.085 236.654 298.553 236.635C321.021 236.615 339.232 218.417 339.251 195.965C339.27 173.542 321.091 155.347 298.623 155.366ZM318.215 209.613L312.495 213.209L312.297 213.322L310.853 214.229L309.013 215.39L304.342 218.221C303.86 218.504 303.379 218.759 302.898 218.986C300.406 220.345 297.407 220.376 294.89 219.021L290.506 216.593L291.071 216.904C291.043 216.904 291.015 216.875 290.987 216.875L289.601 216.085L289.261 215.887L287.663 214.965L280.974 211.2C278.514 209.789 276.988 207.16 276.99 204.304L277.004 188.017C277.007 185.189 278.537 182.558 281 181.113L295.128 172.957C297.591 171.541 300.618 171.539 303.079 172.951L304.691 173.882L311.649 177.835C311.677 177.835 311.677 177.863 311.705 177.863L315.043 179.755C316.033 180.32 316.06 181.762 315.069 182.328L311.105 184.65C310.567 184.962 309.916 184.991 309.351 184.737C309.322 184.737 309.294 184.709 309.238 184.709C309.209 184.709 309.181 184.709 309.181 184.68C309.04 184.624 308.898 184.596 308.757 184.511L302.761 181.066L301.827 180.53C300.272 179.768 298.376 179.515 296.649 180.365L286.712 186.114C285.127 187.02 284.163 188.717 284.161 190.527L284.152 201.838C284.15 203.676 285.111 205.343 286.695 206.247L296.594 211.894L292.064 214.641C290.705 215.462 289.346 215.633 287.96 215.125L288.017 215.153L289.261 215.859C290.874 216.678 292.43 216.563 294.015 215.6L304.661 209.144L317.712 201.243C318.703 200.621 320.004 201.298 320.032 202.486L320.142 205.907C320.197 207.434 319.46 208.82 318.215 209.613Z" fill="#191B26"/>
<path fill-rule="evenodd" clip-rule="evenodd" d="M289.601 216.113L290.508 216.622L289.601 216.113Z" fill="#1B2741"/>
</g>
<defs>
<filter id="filter0_d" x="0.00927734" y="0.00732422" width="603.981" height="471.984" filterUnits="userSpaceOnUse" color-interpolation-filters="sRGB">
<feFlood flood-opacity="0" result="BackgroundImageFix"/>
<feColorMatrix in="SourceAlpha" type="matrix" values="0 0 0 0 0 0 0 0 0 0 0 0 0 0 0 0 0 0 127 0"/>
<feOffset dy="40"/>
<feGaussianBlur stdDeviation="52"/>
<feColorMatrix type="matrix" values="0 0 0 0 0.231373 0 0 0 0 0.243137 0 0 0 0 0.356863 0 0 0 0.2 0"/>
<feBlend mode="normal" in2="BackgroundImageFix" result="effect1_dropShadow"/>
<feBlend mode="normal" in="SourceGraphic" in2="effect1_dropShadow" result="shape"/>
</filter>
<linearGradient id="paint0_linear" x1="112.728" y1="82.3576" x2="470.991" y2="320.13" gradientUnits="userSpaceOnUse">
<stop stop-color="#11102B"/>
<stop offset="1" stop-color="#37364D"/>
</linearGradient>
</defs>
</svg>
