<svg width="566" height="284" viewBox="0 0 566 284" fill="none" xmlns="http://www.w3.org/2000/svg">
<path d="M479.259 142.033C584.137 148.854 594.031 256.852 508.021 274.318C414.648 293.279 404.599 275.026 321.295 256.852C224.033 235.634 181.776 283.475 110.944 283.475C-2.89946 283.475 15.4087 148.853 125.403 148.853C224.251 148.853 208.819 94.9714 291.672 85.7659C399.108 73.8293 354.352 133.909 479.259 142.033Z" fill="url(#paint0_linear)" fill-opacity="0.5"/>
<mask id="mask0" mask-type="alpha" maskUnits="userSpaceOnUse" x="16" y="0" width="535" height="284">
<path d="M103.098 34.817C201.198 22.6695 194.69 25.9331 275.967 7.40055C376.857 -15.6039 340.008 24.9878 464.183 40.7473C484.282 43.2983 513.211 138.363 526.039 152.893C561.114 192.623 563.153 261.537 500.175 274.325C406.802 293.286 396.753 275.033 313.449 256.86C216.187 235.641 173.931 283.482 103.098 283.482C4.48977 283.482 -14.3031 182.476 68.6792 144.763C81.4999 138.936 85.3378 37.0162 103.098 34.817Z" fill="#D1D1D1"/>
</mask>
<g mask="url(#mask0)">
<path d="M77.1682 201.041C81.4856 187.657 92.2792 183.304 97.1363 182.801C97.4961 206.079 95.7418 255.311 97.1363 258.862C114.24 302.414 84.6991 287.146 79.4462 288.369C73.141 276.513 72.8507 214.425 77.1682 201.041Z" fill="#F2BD91"/>
<path d="M94.4117 287.413C82.9575 241.127 88.583 194.552 94.4116 183.357C99.2615 181.933 107.199 181.507 109.811 182.437C108.887 191.051 112.49 208.533 131.784 208.533C151.077 208.533 163.157 191.306 166.786 182.692C179.762 179.093 202.356 185.615 212.032 189.326C197.69 197.351 203.289 254.704 206.549 275.989C172.017 294.755 116.107 284.786 94.4117 287.413Z" fill="url(#paint1_linear)"/>
<path d="M130.39 177.539C134.454 173.256 132.083 157.908 130.39 153.514C131.763 145.826 166.911 135.115 167.186 138.411C167.46 141.706 174.874 181.11 175.561 187.701C176.247 194.291 166.636 201.842 139.314 208.982C111.992 216.121 105.768 181.673 108.283 182.1C117.295 183.628 125.31 182.893 130.39 177.539Z" fill="#EDB88C"/>
<path d="M111.249 119.659C118.678 147.756 126.323 157.99 139.011 157.99C157.675 157.99 173.25 139.711 184.995 130.022C186.835 122.216 190.648 105.879 191.186 102.972C191.859 99.339 132.781 67.9842 126.86 66.1002C120.939 64.2162 101.964 84.5366 111.249 119.659Z" fill="#F2BD91"/>
<path d="M167.932 173.161C165.964 160.111 166.8 148.925 167.871 144.65C167.91 144.492 167.988 144.354 168.099 144.235C171.343 140.746 176.687 135.225 174.367 141.582C170.258 152.837 198.66 167.486 199.588 187.672C200.375 204.784 192.885 217.508 172.044 232.149C147.909 249.105 165.971 272.352 154.874 272.352C146.586 272.352 133.639 256.442 133.639 235.543C133.639 219.449 143.019 207.334 153.454 200.194C163.197 193.528 170.438 189.782 167.932 173.161Z" fill="url(#paint2_linear)"/>
<path d="M144.63 105.396C121.806 103.696 121.95 95.9385 119.479 85.434C119.281 84.5934 118.199 84.4233 117.767 85.1712C106.401 104.856 114.3 128.81 113.26 127.771C105.403 119.913 99.8306 104.12 101.855 85.2603C103.762 67.4945 117.173 56.1527 127.371 54.6265C127.692 54.5785 127.965 54.3896 128.151 54.1243C130.309 51.0432 138.857 45.5662 157.692 45.8515C182.387 46.2257 201.533 61.5713 201.907 90.757C202.25 117.475 187.755 134.847 179.067 139.27C171.254 143.249 170.229 146.002 168.362 145.599C167.942 145.509 167.744 145.061 167.874 144.652C168.412 142.966 170.42 138.391 177.35 133.115C184.639 127.564 184.699 120.238 179.611 117.475C177.267 116.201 173.597 117.456 170.987 119.473C170.189 120.09 168.563 119.512 168.437 118.511C167.777 113.309 164.176 106.851 144.63 105.396Z" fill="url(#paint3_linear)"/>
<path d="M212.553 189.216C231.147 194.252 232.906 249.176 227.902 275.378C226.178 284.41 207.713 281.258 201.495 279.11C197.196 255.336 193.959 184.181 212.553 189.216Z" fill="#F2BD91"/>
<ellipse cx="122.007" cy="119.873" rx="3.25368" ry="3.88989" fill="#7C7E92"/>
<ellipse cx="147.498" cy="119.873" rx="3.25368" ry="3.88989" fill="#7C7E92"/>
<path d="M129.853 141.188C129.576 140.88 129.102 140.855 128.793 141.131C128.485 141.408 128.46 141.882 128.736 142.19L129.853 141.188ZM142.915 142.226C143.211 141.937 143.217 141.462 142.928 141.166C142.639 140.869 142.164 140.863 141.868 141.152L142.915 142.226ZM128.736 142.19C129.71 143.276 131.358 145.184 133.747 145.834C136.233 146.51 139.268 145.781 142.915 142.226L141.868 141.152C138.447 144.487 135.935 144.875 134.14 144.386C132.248 143.871 130.881 142.335 129.853 141.188L128.736 142.19Z" fill="#848CA8"/>
<path d="M366.432 274.276C360.852 255.891 360.783 208.883 366.432 197.495C375.65 194.791 379.999 194.791 387.178 194.791C386.417 203.483 406.347 200.907 425.776 200.527C433.475 195.652 441.072 202.669 444.556 193.924C457.552 190.043 480.433 196.165 490.249 199.711C475.965 208.075 479.8 252.905 483.503 274.275C473.992 305.959 441.033 323.668 366.432 274.276Z" fill="url(#paint4_linear)"/>
<path d="M405.68 188.217C409.688 183.824 404.598 165.704 402.806 161.312C404.037 153.544 449.222 147.1 447.735 150.08C445.605 154.348 439.629 192.354 452.46 192.665C452.46 192.665 457.43 192.538 461.145 192.968C461.145 203.43 452.8 217.545 422.824 218.132C394.387 218.689 384.7 194.556 387.259 194.79C396.421 195.626 400.67 193.709 405.68 188.217Z" fill="url(#paint5_linear)"/>
<path d="M383.345 130.517C391.38 158.664 403.42 169.074 416.196 168.824C434.431 168.467 449.908 150.485 461.544 140.495C463.242 132.599 467.166 115.33 467.65 112.393C468.256 108.721 408.148 78.312 402.148 76.5317C396.148 74.7513 373.302 95.333 383.345 130.517Z" fill="url(#paint6_linear)"/>
<path d="M441.849 104.854C407.353 121.294 397.801 106.367 394.411 94.7544C378.715 113.494 386.675 138.557 385.573 137.497C375.143 127.468 372.983 113.786 374.65 94.7553C375.89 80.5931 382.084 70.8766 395.157 66.9679C400.818 58.3374 412.482 51.6362 432.383 51.5479C457.258 51.4376 480.191 68.5869 481.143 97.969C482.015 124.866 471.616 138.064 463.653 145.514C455.689 152.964 449.72 154.832 445.171 154.921C445.171 154.921 448.241 152.71 454.531 145.514C460.603 138.566 461.364 130.684 456.186 128.001C452.883 126.29 449.871 129.687 447.925 132.992C445.171 128.001 458.684 96.8305 441.849 104.854Z" fill="#FF5879"/>
<path d="M490.763 199.687C509.187 204.291 511.981 258.393 507.555 284.316C504.85 282.713 488.033 284.835 481.862 282.839C474.237 246.19 472.339 195.083 490.763 199.687Z" fill="#F2BD91"/>
<path d="M509.353 262.223C506.823 251.462 484.76 247.594 477.605 260.356C475.285 251.848 470.207 237.268 469.697 223.246C469.187 209.224 475.872 194.485 492.626 200.318C513.71 209.158 512.922 250.496 509.353 262.223Z" fill="url(#paint7_linear)"/>
<ellipse cx="395.678" cy="127.713" rx="3.25368" ry="3.88989" fill="#7C7E92"/>
<ellipse cx="421.168" cy="127.713" rx="3.25368" ry="3.88989" fill="#7C7E92"/>
<path d="M403.528 149.029C403.251 148.721 402.777 148.695 402.469 148.972C402.16 149.248 402.135 149.723 402.412 150.031L403.528 149.029ZM416.59 150.067C416.887 149.778 416.893 149.303 416.603 149.006C416.314 148.71 415.839 148.704 415.543 148.993L416.59 150.067ZM402.412 150.031C403.386 151.116 405.033 153.024 407.422 153.674C409.908 154.351 412.943 153.622 416.59 150.067L415.543 148.993C412.122 152.328 409.61 152.715 407.816 152.227C405.924 151.712 404.557 150.175 403.528 149.029L402.412 150.031Z" fill="#848CA8"/>
<path d="M261.152 184.563C257.225 160.171 255.251 156.218 238.713 167.946C208.766 189.183 226.171 246.632 220.042 279.499L257.475 271.097C253.833 253.605 264.577 205.838 261.152 184.563Z" fill="url(#paint8_linear)"/>
<path d="M350.876 275.41L236.243 276.923C236.243 259.773 228.248 239.107 228.248 207.548C228.248 175.989 236.545 159.186 264.922 159.186C275.824 159.186 280.172 163.347 287.507 161.848C300.813 159.127 290.37 159.187 312.09 159.186C381.509 154.936 370.852 194.17 365.887 243.559C366.193 276.605 342.269 249.981 350.876 275.41Z" fill="url(#paint9_linear)"/>
<path d="M325.953 188.547C329.88 164.156 342.149 158.338 357.228 168.272C379.404 182.881 370.939 246.131 367.962 284.835L325.953 280.903C333.724 254.566 322.528 209.822 325.953 188.547Z" fill="url(#paint10_linear)"/>
<path d="M263.789 160.592C270.241 151.616 265.121 140.952 263.789 137.871C270.36 129.13 303.655 125.979 310.611 127.24C306.241 137.582 308.827 153.656 310.611 160.592C313.237 170.802 257.337 169.568 263.789 160.592Z" fill="#EDB88C"/>
<path d="M318.326 113.003C307.226 138.177 288.304 149.021 268.563 143.299C258.74 140.452 254.086 130.497 248.977 117.911C243.867 105.324 242.538 91.1128 246.138 74.8283C251.846 49.006 270.968 53.8765 292.954 60.2489C314.94 66.6212 329.426 87.8283 318.326 113.003Z" fill="#F2BD91"/>
<ellipse cx="255.093" cy="98.8904" rx="3.60999" ry="4.45947" fill="#7C7E92"/>
<ellipse cx="282.206" cy="98.8904" rx="3.60999" ry="4.45947" fill="#7C7E92"/>
<path d="M277.637 124.025C272.326 133.431 263.902 128.545 262.314 123.648C262.087 122.947 262.831 122.439 263.536 122.652C267.14 123.736 272.345 123.52 276.508 122.62C277.341 122.44 278.055 123.283 277.637 124.025Z" fill="white"/>
<path d="M250.383 74.0376C267.684 84.6076 290.537 78.4418 299.4 74.0376C300.541 73.4706 299.689 76.3496 301.898 80.8315C303.169 83.4113 307.456 87.0074 310.515 80.8315C313.573 74.6557 320.908 84.8901 318.168 94.168C315.237 104.092 320.917 113.505 323.799 103.759C326.965 93.049 346 50.1059 316.408 48.7702C309.556 31.845 290.106 29.2211 270.714 33.2271C253.851 36.7109 245.467 48.6098 240.18 40.2342C233.265 48.3634 233.082 63.4675 250.383 74.0376Z" fill="url(#paint11_linear)"/>
</g>
<rect x="0.365234" y="146.375" width="82.669" height="88.8235" rx="8" fill="#F1F2F7"/>
<rect x="11.1255" y="174.69" width="61.1502" height="8.2099" rx="4.10495" fill="#D2D6E4" stroke="#D2D6E4"/>
<rect x="11.125" y="160.808" width="61.1502" height="8.2099" rx="4.10495" fill="#D2D6E4" stroke="#D2D6E4"/>
<rect x="11.1255" y="189.093" width="61.1502" height="8.2099" rx="4.10495" fill="#D2D6E4" stroke="#D2D6E4"/>
<rect x="10.6255" y="205.327" width="62.1502" height="11.2815" rx="5.64077" fill="url(#paint12_linear)"/>
<rect x="427.673" y="169.494" width="104.069" height="68.7618" rx="8" fill="#F1F2F7"/>
<rect x="436.114" y="191.526" width="47.113" height="6.12975" rx="3.06487" fill="#D2D6E4" stroke="#D2D6E4"/>
<rect x="436.115" y="180.778" width="47.113" height="6.12975" rx="3.06487" fill="#D2D6E4" stroke="#D2D6E4"/>
<rect x="436.114" y="202.676" width="47.113" height="6.12975" rx="3.06487" fill="#D2D6E4" stroke="#D2D6E4"/>
<rect x="483.728" y="169.492" width="63.9974" height="68.7618" rx="8" fill="#F1F2F7"/>
<rect x="492.168" y="191.525" width="47.113" height="6.12975" rx="3.06487" fill="#D2D6E4" stroke="#D2D6E4"/>
<rect x="492.168" y="180.778" width="47.113" height="6.12975" rx="3.06487" fill="#D2D6E4" stroke="#D2D6E4"/>
<rect x="492.168" y="202.677" width="47.113" height="6.12975" rx="3.06487" fill="#D2D6E4" stroke="#D2D6E4"/>
<rect x="435.614" y="215.129" width="104.168" height="13.4855" rx="6.74275" fill="url(#paint13_linear)"/>
<defs>
<linearGradient id="paint0_linear" x1="-63.301" y1="-32.9879" x2="659.632" y2="-32.9879" gradientUnits="userSpaceOnUse">
<stop offset="0.00543478" stop-color="#DBE5FF" stop-opacity="0"/>
<stop offset="0.311594" stop-color="#DBE5FF" stop-opacity="0.883978"/>
<stop offset="0.740942" stop-color="#DBE5FF" stop-opacity="0.775181"/>
<stop offset="1" stop-color="#DBE5FF" stop-opacity="0"/>
</linearGradient>
<linearGradient id="paint1_linear" x1="87.7671" y1="234.705" x2="212.032" y2="234.705" gradientUnits="userSpaceOnUse">
<stop stop-color="#6A56CA"/>
<stop offset="1" stop-color="#21268C"/>
</linearGradient>
<linearGradient id="paint2_linear" x1="176.635" y1="168.043" x2="114.775" y2="176.431" gradientUnits="userSpaceOnUse">
<stop stop-color="#525776"/>
<stop offset="1" stop-color="#848CA8"/>
</linearGradient>
<linearGradient id="paint3_linear" x1="171.155" y1="150.631" x2="70.6141" y2="81.908" gradientUnits="userSpaceOnUse">
<stop stop-color="#525776"/>
<stop offset="1" stop-color="#848CA8"/>
</linearGradient>
<linearGradient id="paint4_linear" x1="362.513" y1="250.549" x2="491.195" y2="248.029" gradientUnits="userSpaceOnUse">
<stop stop-color="#6A56CA"/>
<stop offset="1" stop-color="#21268C"/>
</linearGradient>
<linearGradient id="paint5_linear" x1="423.842" y1="171.666" x2="423.961" y2="215.676" gradientUnits="userSpaceOnUse">
<stop stop-color="#F2BD91"/>
<stop offset="1" stop-color="#F0C199"/>
</linearGradient>
<linearGradient id="paint6_linear" x1="424.422" y1="105.693" x2="424.422" y2="165.358" gradientUnits="userSpaceOnUse">
<stop stop-color="#F2BD91"/>
<stop offset="1" stop-color="#F0C199"/>
</linearGradient>
<linearGradient id="paint7_linear" x1="469.67" y1="230.616" x2="511.302" y2="230.616" gradientUnits="userSpaceOnUse">
<stop stop-color="#6A56CA"/>
<stop offset="1" stop-color="#21268C"/>
</linearGradient>
<linearGradient id="paint8_linear" x1="263.123" y1="219.223" x2="217.236" y2="221.442" gradientUnits="userSpaceOnUse">
<stop stop-color="#6A56CA"/>
<stop offset="1" stop-color="#21268C"/>
</linearGradient>
<linearGradient id="paint9_linear" x1="228.248" y1="217.897" x2="369.593" y2="217.897" gradientUnits="userSpaceOnUse">
<stop stop-color="#6A56CA"/>
<stop offset="1" stop-color="#21268C"/>
</linearGradient>
<linearGradient id="paint10_linear" x1="286.246" y1="225.014" x2="372.2" y2="225.014" gradientUnits="userSpaceOnUse">
<stop stop-color="#6A56CA"/>
<stop offset="1" stop-color="#21268C"/>
</linearGradient>
<linearGradient id="paint11_linear" x1="260.661" y1="82.7098" x2="347.473" y2="28.3056" gradientUnits="userSpaceOnUse">
<stop stop-color="#E39C3D"/>
<stop offset="1" stop-color="#FFD296"/>
</linearGradient>
<linearGradient id="paint12_linear" x1="10.6255" y1="210.968" x2="72.7757" y2="210.968" gradientUnits="userSpaceOnUse">
<stop stop-color="#6A56CA"/>
<stop offset="1" stop-color="#21268C"/>
</linearGradient>
<linearGradient id="paint13_linear" x1="435.614" y1="221.872" x2="539.782" y2="221.872" gradientUnits="userSpaceOnUse">
<stop stop-color="#6A56CA"/>
<stop offset="1" stop-color="#21268C"/>
</linearGradient>
</defs>
</svg>
