<svg width="386" height="540" viewBox="0 0 386 540" fill="none" xmlns="http://www.w3.org/2000/svg">
<path opacity="0.6" d="M39.2996 532.204C60.8646 532.204 78.3465 523.113 78.3465 511.899C78.3465 500.685 60.8646 491.594 39.2996 491.594C17.7346 491.594 0.252686 500.685 0.252686 511.899C0.252686 523.113 17.7346 532.204 39.2996 532.204Z" fill="#737AFF" fill-opacity="0.3"/>
<path opacity="0.6" d="M131.183 515.06C152.748 515.06 170.23 505.969 170.23 494.755C170.23 483.541 152.748 474.45 131.183 474.45C109.618 474.45 92.1365 483.541 92.1365 494.755C92.1365 505.969 109.618 515.06 131.183 515.06Z" fill="#737AFF" fill-opacity="0.3"/>
<path opacity="0.6" d="M346.701 399.495C368.266 399.495 385.748 390.404 385.748 379.189C385.748 367.975 368.266 358.884 346.701 358.884C325.136 358.884 307.654 367.975 307.654 379.189C307.654 390.404 325.136 399.495 346.701 399.495Z" fill="#737AFF" fill-opacity="0.3"/>
<path d="M76.8623 291.736L41.8493 312.075L36.8523 370.09L57.5202 383.099L99.5358 356.425L96.5331 294.07L88.5447 295.725L82.8678 288.405L76.8623 291.736Z" fill="#737AFF"/>
<path d="M41.8493 312.075L47.8548 323.746L58.1887 317.775L57.5202 383.098L36.8523 370.09L41.8493 312.075Z" fill="#F1F1FF"/>
<path d="M58.1886 317.775L96.5329 294.07L99.5357 356.425L57.52 383.098L58.1886 317.775Z" fill="#E0E4FF"/>
<path d="M73.9774 320.852C74.2148 319.299 73.69 317.931 72.8054 317.796C71.9208 317.661 71.0113 318.81 70.7739 320.362C70.5366 321.915 71.0614 323.283 71.946 323.419C72.8306 323.554 73.7401 322.405 73.9774 320.852Z" fill="#0F0F6A"/>
<path d="M86.539 313.091C86.7764 311.539 86.2566 310.171 85.3782 310.037C84.4998 309.903 83.5953 311.052 83.3579 312.605C83.1206 314.158 83.6403 315.525 84.5188 315.66C85.3972 315.794 86.3017 314.644 86.539 313.091Z" fill="#0F0F6A"/>
<path d="M36.8523 370.09L47.5035 366.113L57.5202 383.099L36.8523 370.09Z" fill="#E0E4FF"/>
<path d="M82.8676 288.405V302.523L58.1885 317.775L47.8546 323.746L41.8491 312.075L80.2842 289.832" fill="#4B45B7"/>
<path d="M78.9583 335.757C78.1795 335.755 77.4202 335.514 76.7827 335.066C72.5676 332.211 71.865 321.117 71.8311 320.653L72.9075 320.585C72.9075 320.698 73.61 331.621 77.4399 334.182C77.8222 334.448 78.2638 334.616 78.7261 334.671C79.1884 334.727 79.6572 334.668 80.0914 334.499C85.3717 332.743 85.0431 318.33 84.4765 312.97L85.553 312.857C85.6436 313.684 87.6152 333.185 80.4427 335.519C79.9646 335.681 79.4629 335.761 78.9583 335.757Z" fill="#0F0F6A"/>
<path d="M108.204 308.268L73.1909 328.607L68.1938 386.622L88.8617 399.631L130.877 372.946L127.875 310.602L119.886 312.257L114.209 304.925L108.204 308.268Z" fill="#737AFF"/>
<path d="M73.1909 328.607L79.1963 340.278L89.5303 334.296L88.8617 399.631L68.1938 386.622L73.1909 328.607Z" fill="#F1F1FF"/>
<path d="M89.5301 334.296L127.874 310.602L130.877 372.946L88.8616 399.631L89.5301 334.296Z" fill="#E0E4FF"/>
<path d="M105.309 337.373C105.547 335.82 105.022 334.452 104.137 334.317C103.253 334.182 102.343 335.331 102.106 336.884C101.869 338.436 102.393 339.805 103.278 339.94C104.163 340.075 105.072 338.926 105.309 337.373Z" fill="#0F0F6A"/>
<path d="M117.894 329.614C118.131 328.062 117.607 326.693 116.722 326.558C115.837 326.423 114.928 327.572 114.69 329.125C114.453 330.677 114.978 332.046 115.862 332.181C116.747 332.316 117.657 331.167 117.894 329.614Z" fill="#0F0F6A"/>
<path d="M68.1938 386.622L78.8451 382.634L88.8617 399.631L68.1938 386.622Z" fill="#E0E4FF"/>
<path d="M114.209 304.925V319.044L89.5303 334.296L79.1964 340.278L73.1909 328.607L111.626 306.364" fill="#4B45B7"/>
<path d="M110.3 352.278C109.522 352.276 108.762 352.034 108.125 351.587C103.91 348.731 103.207 337.638 103.173 337.174L104.25 337.106C104.25 337.219 104.952 348.142 108.782 350.703C109.164 350.969 109.606 351.137 110.068 351.192C110.53 351.247 110.999 351.188 111.433 351.02C116.714 349.264 116.385 334.851 115.819 329.491L116.895 329.378C116.986 330.205 118.957 349.706 111.785 352.04C111.307 352.201 110.805 352.282 110.3 352.278Z" fill="#0F0F6A"/>
<path d="M327.211 324.143C327.17 324.153 327.127 324.153 327.086 324.143C327.027 324.109 326.983 324.054 326.963 323.988C326.944 323.922 326.952 323.852 326.984 323.792L331.8 315.146C331.814 315.112 331.835 315.081 331.861 315.055C331.888 315.029 331.92 315.01 331.954 314.997C331.989 314.985 332.026 314.98 332.063 314.983C332.1 314.986 332.135 314.996 332.168 315.014C332.2 315.032 332.228 315.056 332.251 315.086C332.273 315.116 332.288 315.149 332.297 315.185C332.305 315.222 332.305 315.259 332.298 315.295C332.29 315.331 332.275 315.365 332.253 315.395L327.438 324.041C327.411 324.075 327.377 324.103 327.337 324.121C327.298 324.138 327.254 324.146 327.211 324.143Z" fill="#0F0F6A"/>
<path d="M334.837 316.721L322.305 323.996L320.515 344.765L327.914 349.423L342.962 339.882L341.885 317.56L339.03 318.149L336.99 315.52L334.837 316.721Z" fill="#C18C37"/>
<path d="M322.305 323.996L324.458 328.177L328.152 326.035L327.914 349.423L320.515 344.765L322.305 323.996Z" fill="#EAD1AD"/>
<path d="M328.152 326.035L341.885 317.56L342.961 339.882L327.914 349.423L328.152 326.035Z" fill="#E5B28F"/>
<path d="M333.821 327.154C333.906 326.598 333.719 326.107 333.403 326.059C333.088 326.011 332.763 326.423 332.678 326.98C332.593 327.537 332.78 328.027 333.095 328.075C333.411 328.123 333.735 327.711 333.821 327.154Z" fill="#0F0F6A"/>
<path d="M338.328 324.373C338.413 323.816 338.226 323.326 337.911 323.278C337.595 323.23 337.27 323.642 337.185 324.199C337.1 324.755 337.287 325.246 337.602 325.294C337.918 325.342 338.243 324.93 338.328 324.373Z" fill="#0F0F6A"/>
<path d="M320.515 344.765L324.333 343.338L327.914 349.423L320.515 344.765Z" fill="#E5B28F"/>
<path d="M350.916 271.635C355.409 271.635 359.051 267.992 359.051 263.499C359.051 259.006 355.409 255.363 350.916 255.363C346.423 255.363 342.78 259.006 342.78 263.499C342.78 267.992 346.423 271.635 350.916 271.635Z" fill="#E2A1D0"/>
<path d="M339.528 302.965C339.528 302.965 338.859 311.837 338.61 313.605C338.361 315.373 337.998 332.8 338.905 338.137C339.256 340.21 334.678 342.669 332.31 347.202C329.545 352.425 328.423 358.907 326.769 361.717L326.667 361.909C326.418 362.329 326.225 362.691 326.078 362.963L323.755 365.003C323.111 365.559 322.705 366.342 322.622 367.19L321.591 378.521C321.563 378.876 321.662 379.23 321.869 379.52C322.076 379.81 322.379 380.018 322.724 380.107C323.099 380.219 323.504 380.181 323.852 380.002C324.201 379.822 324.466 379.515 324.593 379.144C325.806 375.586 328.922 366.351 328.922 365.966C334.01 358.521 345.918 345.026 347.641 341.14C349.624 336.766 353.941 315.724 353.941 315.724L357.612 307.101L339.528 302.965Z" fill="#E090C6"/>
<path d="M355.233 374.204C356.366 369.988 361.51 345.57 361.51 338.397C361.51 330.658 358.972 302.92 358.972 302.92L338.984 302.387L337.454 309.186L346.44 316.528C346.44 316.528 352.286 338.284 352.83 342.59C353.046 344.335 350.474 345.842 350.27 351.462C349.998 359.19 351.267 378.759 351.312 378.906C351.357 379.053 359.244 378.192 359.244 378.192C359.244 378.192 367.323 376.832 366.62 375.79C366.246 375.11 356.162 375.643 355.233 374.204Z" fill="#E2A1D0"/>
<path d="M344.718 271.578C344.718 271.578 338.202 268.485 335.766 271.578C333.33 274.671 326.271 289.039 325.455 293.379C324.639 297.719 326.271 307.758 327.086 310.466C327.902 313.174 331.426 310.466 331.426 310.466C331.426 310.466 332.559 297.175 332.786 296.087C333.013 294.999 338.214 281.98 338.214 281.98C338.95 285.012 339.854 288 340.922 290.932C342.055 293.368 339.562 300.427 339.018 302.331C338.474 304.234 343.358 306.126 347.426 306.398C351.494 306.67 359.085 303.418 359.085 303.418C358.113 299.615 357.607 295.707 357.578 291.781C357.658 285.878 359.38 279.963 356.921 278.739C352.003 276.348 344.718 271.578 344.718 271.578Z" fill="#E0E4FF"/>
<path d="M329.443 283.17C327.778 286.456 326.431 289.893 325.421 293.436C324.605 297.776 326.237 307.815 327.053 310.523C327.868 313.231 331.392 310.523 331.392 310.523C331.392 310.523 332.525 297.232 332.752 296.144C332.922 295.464 335.018 290.161 336.514 286.252C335.178 286.318 333.844 286.074 332.617 285.539C331.391 285.005 330.305 284.194 329.443 283.17Z" fill="#E2A1D0"/>
<path d="M356.887 278.796C355.584 278.139 354.1 277.323 352.627 276.53C351.414 277.006 350.44 277.436 350.44 277.436L349.624 285.617C349.624 285.617 350.077 298.625 350.972 306.149C353.73 305.504 356.429 304.629 359.04 303.532C358.034 299.582 357.498 295.528 357.442 291.453C357.544 285.47 359.357 280.031 356.887 278.796Z" fill="#D7DAFF"/>
<path d="M377.453 285.368C379.381 285.368 380.943 283.805 380.943 281.878C380.943 279.951 379.381 278.388 377.453 278.388C375.526 278.388 373.963 279.951 373.963 281.878C373.963 283.805 375.526 285.368 377.453 285.368Z" fill="#E2A1D0"/>
<path d="M348.23 274.026L356.887 278.796C356.887 278.796 359.323 279.668 361.771 285.595C364.218 291.521 367.742 297.232 369.363 297.775C370.983 298.319 375.901 285.549 376.988 284.733C378.076 283.918 379.946 282.093 379.674 285.595C379.402 289.096 377.238 304.857 373.702 306.183C370.167 307.509 347.006 289.187 346.734 284.325C346.687 280.835 347.192 277.359 348.23 274.026Z" fill="#E0E4FF"/>
<path d="M376.852 284.042C375.719 284.858 370.994 298.308 369.363 297.764C369.259 297.726 369.161 297.676 369.068 297.617L368.977 297.56L368.728 297.368L368.637 297.3L368.286 296.971L368.173 296.846L367.912 296.552L367.754 296.37L367.493 296.042L367.221 295.679L366.983 295.351L366.734 294.999L366.575 294.761C366.247 294.286 365.918 293.764 365.578 293.198V293.118C365.079 292.291 364.57 291.373 364.071 290.422C362.456 292.858 360.494 295.045 358.247 296.914C364.74 302.217 371.912 306.863 373.748 306.149C377.272 304.789 379.413 289.062 379.719 285.561C380.025 282.059 377.94 283.249 376.852 284.042Z" fill="#E2A1D0"/>
<path d="M371.652 285.175C371.647 285.157 371.647 285.137 371.652 285.119L371.425 284.801L372.037 284.156L375.629 276.62C375.688 276.508 375.771 276.411 375.873 276.337C375.976 276.262 376.093 276.212 376.218 276.19L380.048 275.68L380.343 275.363L380.569 275.68C380.66 275.771 380.569 275.952 380.569 275.952L376.626 284.224C376.577 284.33 376.503 284.424 376.411 284.495C376.3 284.577 376.172 284.631 376.037 284.654L372.32 285.141H371.912C371.843 285.17 371.766 285.17 371.697 285.141L371.652 285.175Z" fill="#2D2D91"/>
<path d="M376.898 282.784L372.569 282.92L371.98 284.155L371.368 284.801L371.595 285.119C371.59 285.137 371.59 285.157 371.595 285.175C371.664 285.204 371.741 285.204 371.81 285.175H372.218L375.935 284.688C376.07 284.665 376.198 284.611 376.309 284.529C376.401 284.458 376.475 284.364 376.524 284.257L377.056 283.124L376.898 282.784Z" fill="#2D2D91"/>
<path d="M380.535 275.963C380.535 275.963 380.626 275.782 380.535 275.691L380.308 275.374L380.014 275.691H379.946L380.127 276.02L380.354 276.337L380.535 275.963Z" fill="#2D2D91"/>
<path d="M372.06 284.835L375.776 284.348C375.901 284.326 376.019 284.276 376.121 284.201C376.223 284.127 376.307 284.03 376.365 283.918L380.309 275.646C380.309 275.646 380.49 275.272 380.071 275.329L375.946 275.872C375.822 275.894 375.704 275.945 375.602 276.019C375.499 276.094 375.416 276.191 375.357 276.303L371.414 284.575C371.414 284.575 371.232 284.949 371.652 284.892L372.06 284.835Z" fill="#5654A6"/>
<path d="M371.946 283.442L375.176 276.677L380.127 276.02L376.898 282.784L371.946 283.442Z" fill="#0F0F6A"/>
<path d="M374.085 284.01C374.317 283.841 374.432 283.601 374.34 283.475C374.247 283.348 373.984 283.383 373.751 283.552C373.519 283.721 373.404 283.961 373.496 284.088C373.588 284.214 373.852 284.18 374.085 284.01Z" fill="#0F0F6A"/>
<path d="M377.14 276.145C377.195 276.104 377.223 276.047 377.201 276.016C377.178 275.986 377.115 275.994 377.059 276.035C377.003 276.075 376.976 276.133 376.998 276.163C377.02 276.194 377.084 276.186 377.14 276.145Z" fill="#0F0F6A"/>
<path d="M377.355 276.082C377.38 276.064 377.392 276.037 377.381 276.021C377.37 276.006 377.34 276.009 377.315 276.027C377.289 276.046 377.278 276.073 377.289 276.088C377.3 276.103 377.33 276.101 377.355 276.082Z" fill="#0F0F6A"/>
<path opacity="0.5" d="M378.36 275.906C378.338 275.914 378.314 275.914 378.292 275.906L377.464 276.02C377.486 276.012 377.51 276.012 377.532 276.02L378.36 275.906Z" fill="#0F0F6A"/>
<path d="M327.053 310.534C327.053 310.534 328.945 316.993 332.186 317.061C332 315.336 332 313.596 332.186 311.871C332.186 311.871 331.846 312.585 331.393 310.534C331.018 309.09 330.442 307.705 329.682 306.421L327.053 310.534Z" fill="#E2A1D0"/>
<path d="M333.239 327.316C333.17 327.316 333.104 327.288 333.055 327.239C333.006 327.19 332.979 327.124 332.979 327.055V312.744C332.978 312.682 332.999 312.622 333.038 312.574C333.078 312.526 333.133 312.494 333.194 312.483C333.254 312.471 333.316 312.48 333.37 312.509C333.424 312.538 333.466 312.585 333.488 312.642L337.953 324.177C337.966 324.209 337.972 324.243 337.971 324.277C337.971 324.312 337.963 324.346 337.95 324.377C337.936 324.409 337.916 324.437 337.891 324.461C337.867 324.485 337.838 324.504 337.806 324.517C337.774 324.529 337.739 324.536 337.705 324.535C337.671 324.535 337.637 324.527 337.605 324.514C337.574 324.5 337.545 324.48 337.521 324.455C337.497 324.431 337.478 324.401 337.466 324.369L333.5 314.172V327.1C333.489 327.161 333.457 327.216 333.409 327.256C333.361 327.295 333.301 327.317 333.239 327.316Z" fill="#0F0F6A"/>
<path d="M332.185 317.05C333.618 317.05 334.78 315.888 334.78 314.455C334.78 313.022 333.618 311.86 332.185 311.86C330.752 311.86 329.591 313.022 329.591 314.455C329.591 315.888 330.752 317.05 332.185 317.05Z" fill="#E2A1D0"/>
<path d="M333.489 327.191C333.421 327.191 333.357 327.165 333.308 327.119C333.26 327.072 333.231 327.009 333.228 326.942L332.933 315.327C332.932 315.293 332.937 315.259 332.949 315.227C332.96 315.194 332.978 315.165 333.002 315.14C333.025 315.114 333.053 315.094 333.084 315.079C333.115 315.065 333.148 315.057 333.183 315.055C333.25 315.055 333.314 315.081 333.363 315.128C333.412 315.174 333.44 315.238 333.443 315.305L333.738 326.919C333.739 326.953 333.734 326.987 333.722 327.02C333.711 327.052 333.693 327.081 333.67 327.107C333.646 327.132 333.619 327.152 333.588 327.167C333.556 327.181 333.523 327.189 333.489 327.191Z" fill="#0F0F6A"/>
<path d="M345.703 265.561L344.48 274.297C344.899 275.256 345.596 276.066 346.481 276.624C347.366 277.181 348.397 277.46 349.443 277.425H350.451L352.4 268.247L345.703 265.561Z" fill="#E2A1D0"/>
<path d="M356.275 265.912C356.257 265.62 356.164 265.337 356.003 265.092C355.843 264.847 355.622 264.648 355.361 264.514C355.1 264.38 354.81 264.317 354.517 264.329C354.224 264.342 353.94 264.431 353.692 264.587C353.375 264.877 353.15 265.254 353.046 265.671C352.941 266.088 352.961 266.526 353.103 266.932C353.402 267.74 353.861 268.48 354.451 269.108C351.873 270.837 349.091 272.241 346.168 273.289L342.531 268.009C341.938 267.245 341.478 266.387 341.171 265.471C340.721 262.831 341.328 260.12 342.859 257.924C343.834 256.813 345.028 255.915 346.365 255.285C347.702 254.655 349.155 254.308 350.633 254.264C353.012 254.071 355.901 255.714 357.431 257.573C359.448 259.986 357.182 263.238 356.275 265.912Z" fill="#AA6396"/>
<path d="M338.078 269.844C337.995 270.084 337.968 270.34 337.998 270.592C338.07 270.847 338.202 271.08 338.383 271.272C339.218 272.302 340.164 273.237 341.205 274.059C342.059 274.743 343 275.311 344.004 275.748C347.403 277.164 351.154 276.666 354.757 276.133C354.505 273.774 354.422 271.4 354.508 269.028C353.756 268.737 353.105 268.234 352.632 267.581C352.16 266.927 351.886 266.151 351.845 265.346C351.989 264.242 352.042 263.127 352.003 262.015C351.369 258.876 346.961 258.219 344.366 258.615C341.771 259.012 340.967 261.221 340.174 263.386C339.36 265.499 338.66 267.655 338.078 269.844Z" fill="#AA6396"/>
<path d="M354.508 268.745C354.99 268.745 355.38 268.355 355.38 267.873C355.38 267.391 354.99 267 354.508 267C354.026 267 353.635 267.391 353.635 267.873C353.635 268.355 354.026 268.745 354.508 268.745Z" fill="#E0E4FF"/>
<path d="M339.562 299.69L333.33 326.307C333.33 326.307 340.457 335.689 348.264 336.72C356.071 337.752 365.113 332.924 365.113 332.924L358.927 302.863C358.927 302.863 346.712 304.665 342.27 301.571L339.562 299.69Z" fill="#D36397"/>
<path d="M326.418 364.765C326.667 364.926 326.879 365.139 327.041 365.388C327.248 365.838 327.319 366.338 327.245 366.827C326.995 371.049 326.18 375.218 324.82 379.223C324.762 379.422 324.678 379.613 324.571 379.79C324.346 380.07 324.028 380.261 323.675 380.327C323.321 380.394 322.956 380.332 322.644 380.152C322.338 379.963 322.078 379.709 321.882 379.407C321.686 379.105 321.56 378.764 321.511 378.407C321.424 377.694 321.447 376.972 321.579 376.266C321.704 375.314 321.84 374.374 321.908 373.422C322.021 371.699 321.908 369.966 322.146 368.255C322.283 366.993 322.718 365.781 323.415 364.719C324.321 363.473 325.296 363.972 326.418 364.765Z" fill="#0F0F6A"/>
<path d="M350.497 375.155C352.097 376.184 353.914 376.828 355.806 377.036C357.697 377.244 359.611 377.012 361.397 376.357C361.687 376.28 361.937 376.098 362.1 375.847C362.236 375.575 362.1 375.167 361.76 375.201C363.044 375.034 364.343 375 365.635 375.099C366.033 375.099 366.424 375.205 366.768 375.405C366.933 375.507 367.056 375.664 367.118 375.848C367.18 376.032 367.177 376.232 367.108 376.413C366.989 376.613 366.81 376.771 366.598 376.866C365.757 377.345 364.863 377.725 363.935 378C362.448 378.394 360.933 378.674 359.403 378.838L357.918 379.042C355.676 379.469 353.379 379.523 351.12 379.201C350.974 379.184 350.836 379.125 350.723 379.031C350.627 378.915 350.568 378.773 350.553 378.623C350.424 377.471 350.405 376.31 350.497 375.155Z" fill="#0F0F6A"/>
<path d="M312.594 237.505L321.908 455.651L249.004 501.52L100.827 407.438L111.411 177.122L139.602 182.958L159.624 157.134L312.594 237.505Z" fill="url(#paint0_linear)"/>
<path d="M312.594 237.505L290.396 265.131L254.975 257.595L249.004 501.52L321.908 455.651L312.594 237.505Z" fill="#E0E4FF"/>
<path d="M255.112 257.899L111.547 177.426L100.964 407.741L249.14 501.823L255.112 257.899Z" fill="#EFF2FF"/>
<path d="M194.777 247.996C196.086 247.818 196.894 245.81 196.582 243.509C196.27 241.208 194.956 239.487 193.648 239.664C192.339 239.842 191.531 241.851 191.843 244.151C192.155 246.452 193.469 248.173 194.777 247.996Z" fill="#737AFF"/>
<path d="M155.956 223.092C157.252 222.916 158.051 220.919 157.741 218.63C157.431 216.342 156.129 214.629 154.833 214.805C153.537 214.981 152.737 216.978 153.048 219.266C153.358 221.555 154.66 223.267 155.956 223.092Z" fill="#737AFF"/>
<path opacity="0.6" d="M321.908 455.651L284.312 441.59L249.004 501.52L321.908 455.651Z" fill="#9092FF"/>
<path d="M172.905 289.708C175.324 289.74 177.696 289.032 179.703 287.679C191.476 279.997 195.012 252.009 195.737 244.689C195.76 244.465 195.738 244.239 195.672 244.024C195.606 243.809 195.497 243.609 195.353 243.436C195.208 243.264 195.03 243.123 194.829 243.021C194.628 242.918 194.409 242.858 194.184 242.842C193.745 242.814 193.312 242.96 192.979 243.248C192.646 243.537 192.44 243.944 192.405 244.383C191.692 251.284 188.281 278.116 177.879 284.892C176.674 285.697 175.289 286.194 173.847 286.34C172.405 286.486 170.95 286.277 169.607 285.731C153.744 280.144 154.877 237.766 156.894 219.84C156.937 219.416 156.815 218.991 156.553 218.653C156.292 218.316 155.911 218.092 155.489 218.027C155.268 217.992 155.043 218.001 154.826 218.054C154.609 218.107 154.405 218.203 154.225 218.336C154.046 218.469 153.895 218.636 153.781 218.829C153.667 219.021 153.593 219.234 153.562 219.455C152.429 229.766 148.056 281.674 168.497 288.869C169.911 289.385 171.4 289.668 172.905 289.708Z" fill="#3A309A"/>
<path d="M159.624 157.134V204.147L254.975 257.595L290.396 265.131L312.594 237.505L159.624 157.134Z" fill="url(#paint1_linear)"/>
<path d="M136.339 428.015V335.134L199.431 371.835V467.889L136.339 428.015Z" fill="url(#paint2_linear)"/>
<path d="M137.381 428.015V335.134L160.304 348.471V442.507L137.381 428.015Z" fill="#B8BCFF"/>
<path d="M160.304 442.507L159.273 442.949V348.108H160.406L159.84 350.794L160.304 442.507Z" fill="#B8BCFF"/>
<path d="M136.339 428.015V335.134L159.273 348.471V442.507L136.339 428.015Z" fill="#837DFF"/>
<path d="M176.531 453.419V358.51L199.465 371.858L199.431 467.889L176.531 453.419Z" fill="url(#paint3_linear)"/>
<path d="M134.254 331.508V429.171L201.515 471.662V370.646L134.254 331.508ZM199.431 467.889L136.339 428.015V335.1L199.431 371.813V467.889Z" fill="#3A309A"/>
<path d="M136.339 423.675L159.273 404.741V400.027L136.339 419.007V423.675Z" fill="#B8BCFF"/>
<path d="M136.339 395.959L159.273 377.025V375.439L136.339 394.407V395.959Z" fill="#B8BCFF"/>
<path d="M136.339 388.345L159.273 369.411V364.697L136.339 383.676V388.345Z" fill="#B8BCFF"/>
<path d="M136.339 357.785L152.429 344.494L149.098 342.556L136.339 353.105V357.785Z" fill="#B8BCFF"/>
<path d="M176.531 438.406L199.453 420.083V415.381L176.531 433.737V438.406Z" fill="#B8BCFF"/>
<path d="M176.531 419.902L199.453 400.786V399.211L176.531 418.35V419.902Z" fill="#B8BCFF"/>
<path d="M176.531 385.829L195.941 369.807L192.598 367.858L176.531 381.15V385.829Z" fill="#B8BCFF"/>
<path d="M113.099 293.22L96.2949 309.141L104.714 313.945L121.495 298.036L113.099 293.22Z" fill="#D36397"/>
<path d="M121.507 298.025L104.703 313.945L113.122 318.761L129.903 302.852L121.507 298.025Z" fill="white"/>
<path d="M129.903 302.84L113.11 318.761L121.529 323.576L138.311 307.656L129.903 302.84Z" fill="#D36397"/>
<path d="M138.311 307.656L121.507 323.576L129.926 328.381L146.707 312.472L138.311 307.656Z" fill="white"/>
<path d="M146.707 312.461L129.903 328.381L138.333 333.196L155.103 317.288L146.707 312.461Z" fill="#D36397"/>
<path d="M155.103 317.276L138.311 333.196L146.73 338.012L163.511 322.092L155.103 317.276Z" fill="white"/>
<path d="M163.511 322.092L146.707 338.012L155.126 342.816L171.907 326.908L163.511 322.092Z" fill="#D36397"/>
<path d="M171.907 326.896L155.103 342.828L163.534 347.632L180.315 331.723L171.907 326.896Z" fill="white"/>
<path d="M180.315 331.712L163.511 347.632L171.93 352.448L188.711 336.539L180.315 331.712Z" fill="#D36397"/>
<path d="M188.711 336.528L171.907 352.448L180.326 357.264L197.108 341.344L188.711 336.528Z" fill="white"/>
<path d="M197.107 341.343L180.315 357.264L188.734 362.068L205.515 346.159L197.107 341.343Z" fill="#D36397"/>
<path d="M205.515 346.148L188.711 362.068L197.13 366.884L213.912 350.975L205.515 346.148Z" fill="white"/>
<path d="M213.912 350.964L197.108 366.884L205.527 371.699L222.308 355.779L213.912 350.964Z" fill="#D36397"/>
<path d="M222.308 355.779L205.515 371.699L213.934 376.504L230.715 360.595L222.308 355.779Z" fill="white"/>
<path d="M230.716 360.595L213.912 376.504L222.331 381.32L239.112 365.411L230.716 360.595Z" fill="#D36397"/>
<path d="M239.112 365.399L222.308 381.32L230.738 386.135L247.508 370.226L239.112 365.399Z" fill="white"/>
<path d="M96.2949 309.141C96.2949 309.141 96.5102 313.56 99.5583 315.361C99.9713 315.666 100.448 315.873 100.952 315.967C101.457 316.061 101.976 316.039 102.471 315.904C102.965 315.769 103.423 315.523 103.81 315.186C104.196 314.849 104.502 314.428 104.703 313.956L96.2949 309.141Z" fill="#C63E7D"/>
<path d="M104.691 313.934C104.691 313.934 104.906 318.353 107.955 320.154C108.368 320.459 108.844 320.666 109.348 320.76C109.853 320.854 110.372 320.832 110.867 320.697C111.362 320.562 111.82 320.316 112.206 319.979C112.593 319.642 112.898 319.221 113.099 318.749L104.691 313.934Z" fill="#D0DDFF"/>
<path d="M113.088 318.738C113.088 318.738 113.303 323.157 116.351 324.959C116.764 325.263 117.241 325.47 117.745 325.564C118.249 325.658 118.768 325.637 119.263 325.501C119.758 325.366 120.216 325.121 120.603 324.783C120.989 324.446 121.294 324.026 121.495 323.554L113.088 318.738Z" fill="#C63E7D"/>
<path d="M121.495 323.531C121.495 323.531 121.71 327.95 124.758 329.752C125.171 330.056 125.648 330.263 126.152 330.357C126.657 330.451 127.176 330.43 127.671 330.294C128.166 330.159 128.624 329.914 129.01 329.577C129.397 329.239 129.702 328.819 129.903 328.347L121.495 323.531Z" fill="#D0DDFF"/>
<path d="M129.88 328.335C129.88 328.335 130.096 332.755 133.144 334.556C133.557 334.861 134.033 335.067 134.538 335.161C135.042 335.255 135.561 335.234 136.056 335.099C136.551 334.964 137.009 334.718 137.395 334.381C137.782 334.044 138.087 333.623 138.288 333.151L129.88 328.335Z" fill="#C63E7D"/>
<path d="M138.277 333.128C138.277 333.128 138.492 337.548 141.54 339.349C141.953 339.654 142.43 339.861 142.934 339.954C143.438 340.048 143.957 340.027 144.452 339.892C144.947 339.757 145.405 339.511 145.792 339.174C146.178 338.837 146.483 338.416 146.684 337.944L138.277 333.128Z" fill="#D0DDFF"/>
<path d="M146.673 337.933C146.673 337.933 146.888 342.352 149.936 344.154C150.349 344.458 150.826 344.665 151.33 344.759C151.834 344.853 152.354 344.831 152.848 344.696C153.343 344.561 153.801 344.316 154.188 343.978C154.574 343.641 154.88 343.221 155.081 342.749L146.673 337.933Z" fill="#C63E7D"/>
<path d="M155.058 342.726C155.058 342.726 155.273 347.145 158.321 348.947C158.736 349.241 159.212 349.439 159.714 349.525C160.215 349.611 160.729 349.583 161.219 349.444C161.708 349.305 162.16 349.058 162.541 348.72C162.922 348.383 163.223 347.965 163.42 347.496L155.058 342.726Z" fill="#D0DDFF"/>
<path d="M163.42 347.496C163.42 347.496 163.636 351.915 166.684 353.717C167.097 354.021 167.573 354.228 168.078 354.322C168.582 354.416 169.101 354.395 169.596 354.26C170.091 354.125 170.549 353.879 170.935 353.542C171.322 353.204 171.627 352.784 171.828 352.312L163.42 347.496Z" fill="#C63E7D"/>
<path d="M171.851 352.323C171.851 352.323 172.066 356.742 175.114 358.544C175.527 358.848 176.003 359.055 176.508 359.149C177.012 359.243 177.531 359.222 178.026 359.087C178.521 358.952 178.979 358.706 179.366 358.369C179.752 358.031 180.057 357.611 180.258 357.139L171.851 352.323Z" fill="#D0DDFF"/>
<path d="M180.247 357.116C180.247 357.116 180.462 361.535 183.51 363.337C183.923 363.641 184.4 363.848 184.904 363.942C185.409 364.036 185.928 364.015 186.423 363.88C186.918 363.745 187.375 363.499 187.762 363.162C188.149 362.825 188.454 362.404 188.655 361.932L180.247 357.116Z" fill="#C63E7D"/>
<path d="M188.643 361.921C188.643 361.921 188.859 366.34 191.907 368.141C192.32 368.446 192.796 368.653 193.301 368.747C193.805 368.841 194.324 368.819 194.819 368.684C195.314 368.549 195.772 368.304 196.158 367.966C196.545 367.629 196.85 367.208 197.051 366.736L188.643 361.921Z" fill="#D0DDFF"/>
<path d="M197.04 366.759C197.04 366.759 197.255 371.178 200.303 372.98C200.716 373.284 201.192 373.491 201.697 373.585C202.201 373.679 202.72 373.658 203.215 373.523C203.71 373.387 204.168 373.142 204.555 372.805C204.941 372.467 205.246 372.047 205.447 371.575L197.04 366.759Z" fill="#C63E7D"/>
<path d="M205.436 371.518C205.436 371.518 205.651 375.937 208.699 377.739C209.112 378.043 209.589 378.25 210.093 378.344C210.598 378.438 211.117 378.417 211.612 378.282C212.107 378.146 212.564 377.901 212.951 377.564C213.338 377.226 213.643 376.806 213.844 376.334L205.436 371.518Z" fill="#D0DDFF"/>
<path d="M213.832 376.311C213.832 376.311 214.048 380.73 217.096 382.532C217.509 382.836 217.985 383.043 218.49 383.137C218.994 383.231 219.513 383.21 220.008 383.075C220.503 382.939 220.961 382.694 221.347 382.357C221.734 382.019 222.039 381.599 222.24 381.127L213.832 376.311Z" fill="#C63E7D"/>
<path d="M222.229 381.116C222.229 381.116 222.444 385.535 225.492 387.336C225.905 387.641 226.381 387.848 226.886 387.942C227.39 388.036 227.909 388.014 228.404 387.879C228.899 387.744 229.357 387.498 229.743 387.161C230.13 386.824 230.435 386.403 230.636 385.931L222.229 381.116Z" fill="#D0DDFF"/>
<path d="M112.124 439.992C112.079 439.992 112.035 439.979 111.996 439.957C111.957 439.934 111.925 439.902 111.902 439.863C111.879 439.825 111.867 439.781 111.866 439.736C111.865 439.691 111.876 439.646 111.898 439.607L116.713 430.961C116.727 430.927 116.748 430.896 116.774 430.87C116.801 430.844 116.833 430.825 116.868 430.812C116.902 430.8 116.939 430.795 116.976 430.798C117.013 430.801 117.049 430.811 117.081 430.829C117.113 430.847 117.142 430.871 117.164 430.901C117.186 430.931 117.202 430.964 117.21 431C117.218 431.037 117.218 431.074 117.211 431.11C117.203 431.146 117.188 431.18 117.167 431.21L112.351 439.856C112.329 439.897 112.296 439.931 112.256 439.955C112.216 439.979 112.171 439.991 112.124 439.992Z" fill="#0F0F6A"/>
<path d="M119.75 432.57L107.218 439.845L105.428 460.614L112.827 465.271L127.875 455.719L126.798 433.397L123.932 433.998L121.903 431.369L119.75 432.57Z" fill="#737AFF"/>
<path d="M107.218 439.845L109.371 444.026L113.065 441.884L112.827 465.271L105.428 460.614L107.218 439.845Z" fill="#F1F1FF"/>
<path d="M113.065 441.884L126.798 433.397L127.875 455.719L112.827 465.272L113.065 441.884Z" fill="#E0E4FF"/>
<path d="M118.719 443.001C118.804 442.445 118.617 441.954 118.302 441.906C117.986 441.858 117.662 442.27 117.576 442.827C117.491 443.383 117.678 443.874 117.994 443.922C118.309 443.97 118.634 443.558 118.719 443.001Z" fill="#0F0F6A"/>
<path d="M123.215 440.197C123.3 439.641 123.113 439.15 122.798 439.102C122.482 439.054 122.157 439.466 122.072 440.023C121.987 440.58 122.174 441.07 122.489 441.118C122.805 441.166 123.13 440.754 123.215 440.197Z" fill="#0F0F6A"/>
<path d="M105.428 460.614L109.247 459.187L112.827 465.271L105.428 460.614Z" fill="#E0E4FF"/>
<path d="M111.966 426.383C111.966 426.383 113.858 432.842 117.099 432.91C116.913 431.185 116.913 429.445 117.099 427.72C117.099 427.72 116.759 428.434 116.306 426.383C115.931 424.939 115.355 423.554 114.595 422.27L111.966 426.383Z" fill="#D98EBE"/>
<path d="M118.096 443.165C118.027 443.165 117.96 443.137 117.912 443.088C117.863 443.039 117.835 442.973 117.835 442.904V428.593C117.834 428.531 117.855 428.471 117.895 428.423C117.934 428.375 117.99 428.343 118.051 428.332C118.11 428.32 118.173 428.329 118.227 428.358C118.281 428.387 118.322 428.434 118.345 428.491L122.81 440.026C122.835 440.091 122.834 440.163 122.806 440.226C122.779 440.29 122.727 440.34 122.662 440.366C122.598 440.391 122.526 440.39 122.462 440.363C122.398 440.335 122.348 440.283 122.322 440.219L118.356 430.021V442.949C118.346 443.01 118.314 443.066 118.266 443.105C118.218 443.144 118.158 443.166 118.096 443.165Z" fill="#0F0F6A"/>
<path d="M117.099 432.899C118.532 432.899 119.694 431.737 119.694 430.304C119.694 428.871 118.532 427.709 117.099 427.709C115.666 427.709 114.504 428.871 114.504 430.304C114.504 431.737 115.666 432.899 117.099 432.899Z" fill="#D98EBE"/>
<path d="M148.338 420.786L151.228 410.055" stroke="#4B4590" stroke-width="0.5" stroke-miterlimit="10" stroke-linecap="round"/>
<path d="M118.402 443.04C118.335 443.04 118.27 443.014 118.222 442.968C118.173 442.921 118.144 442.858 118.141 442.791L117.847 431.176C117.845 431.142 117.85 431.108 117.862 431.076C117.874 431.043 117.892 431.014 117.915 430.989C117.938 430.963 117.966 430.943 117.997 430.928C118.028 430.914 118.062 430.906 118.096 430.904C118.163 430.904 118.228 430.93 118.276 430.977C118.325 431.023 118.354 431.087 118.357 431.154L118.651 442.768C118.651 442.835 118.625 442.9 118.579 442.948C118.532 442.997 118.469 443.026 118.402 443.029V443.04Z" fill="#0F0F6A"/>
<path d="M162.268 394.009C162.761 392.611 162.027 391.077 160.629 390.583C159.23 390.09 157.696 390.824 157.203 392.223C156.709 393.621 157.443 395.155 158.842 395.649C160.241 396.142 161.774 395.408 162.268 394.009Z" fill="#D98EBE"/>
<path d="M124.169 418.576C124.169 418.576 121.144 441.816 120.883 453.057C120.623 464.297 116.192 464.58 113.054 471.832C111.037 476.61 109.315 481.506 107.898 486.495L109.586 487.446C109.586 487.446 124.498 469.135 126.277 467.345C128.056 465.555 133.959 434.927 133.959 434.927L124.169 418.576Z" fill="#1D2BCB"/>
<path d="M109.552 487.435C109.552 487.435 108.861 489.52 108.283 491.14C107.705 492.761 108.283 496.353 107.354 497.86C106.425 499.367 103.875 498.086 103.955 496.817C104.182 494.48 104.56 492.16 105.088 489.871C105.898 488.664 106.807 487.527 107.807 486.472L109.552 487.435Z" fill="#2E3179"/>
<path d="M154.865 413.987L143.602 421.613L143.274 441.182L150.503 445.057L163.964 435.142L161.505 414.316L158.865 415.052L156.792 412.729L154.865 413.987Z" fill="#992862"/>
<path d="M135.818 387.484C140.311 387.484 143.954 383.841 143.954 379.348C143.954 374.855 140.311 371.212 135.818 371.212C131.325 371.212 127.682 374.855 127.682 379.348C127.682 383.841 131.325 387.484 135.818 387.484Z" fill="#D98EBE"/>
<path d="M139.251 489.021C139.251 489.021 139.41 492.364 139.444 492.659C139.478 492.953 140.894 493.679 142.968 493.259C145.041 492.84 150.899 490.914 151.874 489.86C152.848 488.806 149.676 489.078 147.704 489.259C145.773 489.312 143.841 489.218 141.925 488.976L139.251 489.021Z" fill="#2E3179"/>
<path d="M123.15 426.95L132.113 434.315C132.113 434.315 137.37 452.343 137.903 456.649C138.435 460.954 139.262 484.16 139.24 489.01C139.24 492.024 141.393 490.551 142.209 490.019C143.024 489.486 146.514 460.173 146.514 452.49C146.514 444.808 143.115 418.021 143.115 418.021L124.158 418.1L123.15 426.95Z" fill="#444BED"/>
<path d="M158.389 394.282C158.389 394.282 151.024 409.534 150.344 412.219C149.823 414.293 153.664 417.228 155.183 415.619C156.701 414.01 160.712 394.939 160.712 394.939L158.389 394.282Z" fill="#D98EBE"/>
<path d="M141.993 408.854C142.31 402.214 143.285 395.869 141.8 394.645C137.585 391.178 130.469 388.639 130.469 388.639C130.469 388.639 123.954 385.546 121.518 388.639C119.082 391.733 111.15 404.956 110.334 409.296C109.999 412.477 110.082 415.689 110.583 418.848C111.716 419.483 114.696 421.046 116.373 420.219C116.43 416.174 116.532 411.528 116.691 410.928C116.963 409.795 123.093 397.897 123.093 397.897C123.829 400.929 124.733 403.917 125.801 406.848C126.934 409.285 124.441 416.344 123.897 418.248C123.353 420.151 128.237 422.043 132.305 422.315C136.373 422.587 143.965 419.335 143.965 419.335C143.965 419.335 141.789 413.217 141.993 408.854Z" fill="#EAD1AD"/>
<path d="M116.306 426.383C116.306 426.383 116.306 423.505 116.374 420.219C114.697 421.046 111.683 419.483 110.583 418.848C110.871 421.388 111.329 423.905 111.955 426.383C112.77 429.08 116.306 426.383 116.306 426.383Z" fill="#D98EBE"/>
<path d="M141.744 394.736C140.532 393.92 140.792 396.356 139.33 395.517C138.771 395.79 138.149 395.908 137.529 395.857L136.668 401.523C136.668 401.523 135.002 414.406 135.897 421.919C138.655 421.274 141.354 420.398 143.965 419.301C143.678 417.302 143.25 415.325 142.684 413.386C140.758 406.803 143.58 395.971 141.744 394.736Z" fill="#DBBE96"/>
<path d="M130.56 381.41L129.427 390.146C129.846 391.105 130.543 391.915 131.428 392.473C132.313 393.03 133.345 393.309 134.39 393.274H135.398L137.347 384.096L130.56 381.41Z" fill="#D98EBE"/>
<path d="M141.177 381.716C141.164 381.423 141.074 381.138 140.917 380.89C140.759 380.641 140.54 380.439 140.28 380.301C140.02 380.164 139.729 380.097 139.435 380.106C139.142 380.116 138.855 380.202 138.605 380.356C138.288 380.647 138.064 381.024 137.959 381.441C137.854 381.858 137.874 382.296 138.016 382.702C138.315 383.51 138.774 384.25 139.364 384.878C136.786 386.607 134.004 388.011 131.081 389.059L127.444 383.778C126.851 383.015 126.391 382.157 126.084 381.24C125.635 378.601 126.241 375.89 127.773 373.694C128.748 372.583 129.941 371.684 131.278 371.055C132.616 370.425 134.068 370.077 135.546 370.034C137.925 369.841 140.815 371.484 142.344 373.342C144.407 375.824 142.129 379.087 141.177 381.716Z" fill="#4B4590"/>
<path d="M155.205 411.698C154.728 410.606 154.115 409.578 153.381 408.639C151.647 406.463 149.449 404.639 146.764 399.721C143.693 394.056 139.965 393.704 139.965 393.704C133.71 394.384 134.923 398.305 135.965 401.296C136.5 402.869 137.62 404.175 139.092 404.945C140.014 405.408 140.849 406.025 141.563 406.769C145.925 411.404 151.364 417.046 153.064 415.449L153.483 415.324C153.846 415.215 154.181 415.03 154.466 414.782C154.752 414.533 154.981 414.227 155.139 413.882C155.296 413.538 155.379 413.164 155.38 412.786C155.382 412.407 155.303 412.032 155.149 411.687L155.205 411.698Z" fill="#EAD1AD"/>
<path d="M149.211 423.154L161.505 414.316L163.964 435.142L150.503 445.057L149.211 423.154Z" fill="#D36397"/>
<path d="M153.63 409.217L152.588 425.397" stroke="#4B4590" stroke-width="0.5" stroke-miterlimit="10" stroke-linecap="round"/>
<path d="M153.608 409.024L159.194 421.534" stroke="#4B4590" stroke-width="0.5" stroke-miterlimit="10" stroke-linecap="round"/>
<path d="M143.602 421.613L145.88 425.386L149.211 423.154L150.503 445.057L143.274 441.182L143.602 421.613Z" fill="#E879B2"/>
<path d="M129.835 379.076C133.22 379.076 135.965 376.331 135.965 372.946C135.965 369.56 133.22 366.816 129.835 366.816C126.449 366.816 123.705 369.56 123.705 372.946C123.705 376.331 126.449 379.076 129.835 379.076Z" fill="#EAD1AD"/>
<path d="M143.274 441.182L146.752 439.595L150.503 445.057L143.274 441.182Z" fill="#D36397"/>
<path d="M128.792 378.487C132.428 378.487 135.376 375.539 135.376 371.903C135.376 368.268 132.428 365.32 128.792 365.32C125.156 365.32 122.209 368.268 122.209 371.903C122.209 375.539 125.156 378.487 128.792 378.487Z" fill="#4B4590"/>
<path d="M311.506 431.403L276.504 451.742L271.496 509.757L292.175 522.765L334.18 496.092L331.188 433.737L323.188 435.391L317.512 428.06L311.506 431.403Z" fill="url(#paint4_linear)"/>
<path d="M276.504 451.742L282.499 463.413L292.833 457.442L292.175 522.765L271.496 509.757L276.504 451.742Z" fill="#F1F1FF"/>
<path d="M292.832 457.442L331.188 433.737L334.18 496.092L292.175 522.765L292.832 457.442Z" fill="#E0E4FF"/>
<path d="M308.624 460.531C308.861 458.978 308.337 457.61 307.452 457.475C306.567 457.339 305.658 458.488 305.42 460.041C305.183 461.594 305.708 462.962 306.592 463.097C307.477 463.233 308.387 462.083 308.624 460.531Z" fill="#0F0F6A"/>
<path d="M321.208 452.781C321.445 451.229 320.921 449.86 320.036 449.725C319.151 449.59 318.242 450.739 318.005 452.292C317.767 453.844 318.292 455.213 319.177 455.348C320.061 455.483 320.971 454.334 321.208 452.781Z" fill="#0F0F6A"/>
<path d="M271.496 509.757L282.159 505.769L292.175 522.765L271.496 509.757Z" fill="#E0E4FF"/>
<path d="M317.512 428.06V442.179L292.832 457.442L282.499 463.413L276.504 451.742L314.928 429.499" fill="#4B45B7"/>
<path d="M313.602 475.413C312.824 475.41 312.064 475.169 311.427 474.722C307.212 471.866 306.509 460.773 306.475 460.308L307.552 460.241C307.552 460.354 308.254 471.277 312.084 473.838C312.466 474.104 312.908 474.272 313.37 474.327C313.832 474.382 314.301 474.323 314.735 474.155C320.016 472.399 319.687 457.986 319.121 452.626L320.197 452.513C320.288 453.34 322.259 472.841 315.087 475.175C314.609 475.336 314.107 475.417 313.602 475.413Z" fill="#0F0F6A"/>
<path d="M342.859 447.924L307.846 468.263L302.838 526.289L323.517 539.286L365.533 512.613L362.53 450.258L354.53 451.912L348.853 444.592L342.859 447.924Z" fill="url(#paint5_linear)"/>
<path d="M307.846 468.263L313.84 479.934L324.186 473.962L323.517 539.286L302.838 526.289L307.846 468.263Z" fill="#F1F1FF"/>
<path d="M324.186 473.962L362.53 450.258L365.533 512.613L323.517 539.286L324.186 473.962Z" fill="#E0E4FF"/>
<path d="M339.956 477.041C340.194 475.488 339.669 474.12 338.784 473.984C337.9 473.849 336.99 474.998 336.753 476.551C336.516 478.104 337.04 479.472 337.925 479.607C338.81 479.742 339.719 478.593 339.956 477.041Z" fill="#0F0F6A"/>
<path d="M352.552 469.293C352.789 467.74 352.264 466.372 351.38 466.237C350.495 466.101 349.586 467.251 349.348 468.803C349.111 470.356 349.636 471.724 350.52 471.86C351.405 471.995 352.315 470.846 352.552 469.293Z" fill="#0F0F6A"/>
<path d="M302.838 526.289L313.5 522.301L323.517 539.286L302.838 526.289Z" fill="#E0E4FF"/>
<path d="M348.853 444.592V458.711L324.186 473.962L313.84 479.934L307.846 468.263L346.27 446.031" fill="#4B45B7"/>
<path d="M344.944 491.945C344.166 491.942 343.406 491.701 342.769 491.254C338.554 488.398 337.851 477.305 337.817 476.841L338.894 476.773C338.894 476.886 339.596 487.809 343.426 490.37C343.808 490.636 344.25 490.804 344.712 490.859C345.175 490.914 345.643 490.855 346.078 490.687C351.358 488.931 351.029 474.518 350.463 469.158L351.539 469.045C351.63 469.872 353.601 489.373 346.429 491.707C345.951 491.868 345.449 491.949 344.944 491.945Z" fill="#0F0F6A"/>
<path d="M49.1578 473.351C49.1069 473.352 49.0566 473.339 49.0122 473.315C48.9677 473.29 48.9308 473.253 48.9053 473.209C48.8798 473.165 48.8666 473.115 48.8672 473.064C48.8678 473.013 48.8821 472.963 48.9086 472.92L54.2342 463.357C54.2528 463.324 54.2776 463.295 54.3073 463.272C54.3371 463.249 54.371 463.232 54.4073 463.222C54.4436 463.212 54.4815 463.209 54.5189 463.214C54.5563 463.218 54.5924 463.23 54.6251 463.249C54.6578 463.267 54.6866 463.292 54.7097 463.322C54.7328 463.352 54.7499 463.386 54.7599 463.422C54.7699 463.458 54.7726 463.496 54.768 463.534C54.7633 463.571 54.7513 463.607 54.7327 463.64L49.4071 473.203C49.3827 473.248 49.3466 473.285 49.3027 473.311C49.2589 473.337 49.2088 473.351 49.1578 473.351Z" fill="#0F0F6A"/>
<path d="M9.26085 459.504C9.2162 459.515 9.16953 459.515 9.12488 459.504C9.09056 459.486 9.06023 459.462 9.03576 459.432C9.01129 459.402 8.99319 459.367 8.98258 459.33C8.97197 459.293 8.96906 459.254 8.97405 459.216C8.97903 459.177 8.9918 459.141 9.01157 459.107L14.3372 449.544C14.3558 449.511 14.3806 449.482 14.4104 449.459C14.4401 449.436 14.474 449.419 14.5103 449.409C14.5466 449.399 14.5846 449.396 14.6219 449.401C14.6593 449.406 14.6954 449.418 14.7281 449.436C14.7608 449.455 14.7896 449.48 14.8127 449.509C14.8358 449.539 14.8529 449.573 14.8629 449.609C14.8729 449.646 14.8756 449.684 14.871 449.721C14.8663 449.758 14.8543 449.794 14.8357 449.827L9.51014 459.391C9.48155 459.429 9.44369 459.46 9.40009 459.479C9.3565 459.499 9.30859 459.508 9.26085 459.504Z" fill="#0F0F6A"/>
<path d="M17.7027 451.289L3.83342 459.345L1.86182 482.313L10.0429 487.458L26.6769 476.897L25.4871 452.218L22.3258 452.864L20.0709 449.975L17.7027 451.289Z" fill="#E4C3AD"/>
<path d="M3.83342 459.345L6.21295 463.968L10.3035 461.6L10.0429 487.458L1.86182 482.313L3.83342 459.345Z" fill="#F7D7CA"/>
<path d="M10.3033 461.6L25.487 452.218L26.6768 476.897L10.0427 487.458L10.3033 461.6Z" fill="#E5B28F"/>
<path d="M16.5494 462.832C16.6431 462.22 16.4383 461.68 16.0918 461.627C15.7454 461.574 15.3886 462.028 15.2949 462.64C15.2012 463.253 15.4061 463.792 15.7525 463.845C16.0989 463.898 16.4557 463.445 16.5494 462.832Z" fill="#0F0F6A"/>
<path d="M21.5343 459.743C21.628 459.131 21.423 458.592 21.0766 458.539C20.7302 458.486 20.3734 458.939 20.2798 459.552C20.1862 460.164 20.3912 460.703 20.7376 460.756C21.084 460.809 21.4407 460.356 21.5343 459.743Z" fill="#0F0F6A"/>
<path d="M1.86182 482.313L6.07698 480.738L10.0429 487.458L1.86182 482.313Z" fill="#E5B28F"/>
<path d="M15.9236 463.017C15.8855 463.017 15.8477 463.009 15.8126 462.994C15.7774 462.979 15.7457 462.957 15.7192 462.93C15.6928 462.902 15.6721 462.87 15.6586 462.834C15.645 462.798 15.6388 462.76 15.6404 462.722V446.859C15.6417 446.791 15.666 446.726 15.7093 446.675C15.7526 446.623 15.8123 446.588 15.8783 446.575C15.9441 446.563 16.012 446.575 16.0701 446.608C16.1282 446.641 16.1726 446.694 16.1956 446.757L21.1359 459.515C21.1493 459.55 21.1557 459.588 21.1547 459.625C21.1537 459.662 21.1453 459.699 21.1301 459.734C21.1148 459.768 21.093 459.799 21.0658 459.824C21.0386 459.85 21.0066 459.87 20.9716 459.884C20.9367 459.897 20.8994 459.903 20.862 459.902C20.8245 459.901 20.7877 459.893 20.7535 459.878C20.7193 459.862 20.6884 459.841 20.6627 459.813C20.6369 459.786 20.6168 459.754 20.6034 459.719L16.2182 448.388V462.688C16.2251 462.73 16.2225 462.773 16.2106 462.813C16.1987 462.854 16.1779 462.891 16.1496 462.923C16.1213 462.954 16.0864 462.979 16.0473 462.995C16.0082 463.012 15.9659 463.019 15.9236 463.017Z" fill="#0F0F6A"/>
<path d="M16.207 462.869C16.1318 462.869 16.0598 462.839 16.0067 462.786C15.9535 462.733 15.9237 462.661 15.9237 462.586L15.6064 449.737C15.6049 449.698 15.6111 449.66 15.6246 449.625C15.6382 449.589 15.6588 449.556 15.6853 449.529C15.7117 449.501 15.7435 449.48 15.7786 449.465C15.8137 449.45 15.8515 449.442 15.8897 449.442C15.9648 449.442 16.0369 449.472 16.09 449.525C16.1431 449.578 16.173 449.65 16.173 449.725L16.4903 462.575C16.4918 462.613 16.4856 462.651 16.472 462.687C16.4585 462.722 16.4379 462.755 16.4114 462.782C16.3849 462.81 16.3532 462.832 16.3181 462.847C16.2829 462.862 16.2451 462.869 16.207 462.869Z" fill="#0F0F6A"/>
<path d="M23.7531 437.476C23.7531 437.476 18.6202 458.869 16.4672 470.337C14.3143 481.804 17.691 511.502 17.691 511.502C18.0927 512.074 18.6302 512.537 19.2552 512.85C19.8802 513.162 20.5732 513.314 21.2716 513.293C23.7758 513.293 26.4839 477.86 26.4839 477.86C26.4839 477.86 29.8832 451.799 31.6169 452.161C32.0135 452.241 35.2768 453.465 36.7499 453.181C41.8262 452.207 49.0781 447.765 48.7948 442.496C48.4322 435.697 43.0726 435.335 43.0726 435.335C43.0726 435.335 33.7698 434.621 32.6934 434.972C31.6169 435.323 23.7531 437.476 23.7531 437.476Z" fill="#444BED"/>
<path d="M35.6736 445.193C35.6736 445.193 33.94 468.603 36.4441 473.26C38.9483 477.917 52.9309 492.07 52.9309 492.07C52.9309 492.07 57.0327 492.602 55.9562 489.747C54.8798 486.891 45.1917 469.657 45.1917 469.657L48.795 442.462L40.9312 432.819L35.6736 445.193Z" fill="#444BED"/>
<path d="M17.9744 403.189C17.9744 403.189 20.1273 399.257 23.3453 399.257C26.5633 399.257 47.6278 403.936 49.0669 405.375C50.5059 406.815 60.6132 426.021 60.6132 432.479C60.6132 438.938 58.4603 461.113 58.4603 461.113C58.4603 461.113 54.5284 461.827 53.452 460.037C52.3755 458.246 51.2991 436.06 51.2991 436.06C51.2991 436.06 45.5769 415.29 45.5769 416.355C45.5769 417.42 17.9744 403.189 17.9744 403.189Z" fill="#F1F1FF"/>
<path d="M24.1047 403.121L45.1125 408.945L48.0812 414.214C48.0812 414.214 49.8716 439.267 48.7951 442.541C47.7186 445.816 35.9117 447.198 31.6172 446.473C27.3227 445.748 23.7421 437.522 23.7421 437.522L21.5552 401.75L24.1047 403.121Z" fill="#F1F1FF"/>
<path d="M17.9747 403.189C17.9747 403.189 12.0258 413.976 11.6632 421.488C11.3006 429.001 13.0116 445.352 13.0116 445.352C13.6442 445.756 14.3658 446.001 15.114 446.064C15.8623 446.127 16.6147 446.007 17.3061 445.714C19.459 444.638 18.7338 424.593 19.8103 422.089C20.8867 419.585 27.6854 403.834 27.6854 403.834C27.6854 403.834 25.1812 398.883 17.9747 403.189Z" fill="#F1F1FF"/>
<path d="M29.5775 400.854C34.2147 400.854 37.9738 397.095 37.9738 392.458C37.9738 387.821 34.2147 384.062 29.5775 384.062C24.9403 384.062 21.1812 387.821 21.1812 392.458C21.1812 397.095 24.9403 400.854 29.5775 400.854Z" fill="#AA6396"/>
<path d="M26.8013 395.087L29.7134 403.664C30.5384 404.359 31.5531 404.79 32.6259 404.901C33.6988 405.012 34.7803 404.799 35.7302 404.288L36.6366 403.8L34.2458 394.418L26.8013 395.087Z" fill="#AA6396"/>
<path d="M52.6362 491.628C52.6362 491.628 53.7693 496.035 53.3728 496.874C52.9762 497.712 51.7751 501.769 53.9393 502.165C56.1035 502.562 57.4746 500.545 57.6899 498.426C57.9052 496.307 56.0129 489.781 56.0129 489.781L52.6362 491.628Z" fill="#4B4590"/>
<path d="M20.5012 504.375C19.3681 504.205 18.167 503.854 16.9319 503.627C17.3398 508.307 17.7024 511.491 17.7024 511.491C17.9857 514.426 18.9148 514.177 21.3397 513.406C22.1102 513.168 22.926 509.553 23.6739 504.534C22.614 504.547 21.5544 504.494 20.5012 504.375Z" fill="#AA6396"/>
<path d="M16.2294 504.42C16.2294 504.42 18.6769 506.868 23.7079 506.29C24.2971 506.154 24.841 504.885 24.943 503.763C24.9505 503.229 24.8935 502.697 24.773 502.177C24.7381 502.023 24.6673 501.88 24.5665 501.759C24.4656 501.638 24.3375 501.543 24.1927 501.481C24.0479 501.419 23.8904 501.392 23.7333 501.403C23.5762 501.414 23.4238 501.461 23.2887 501.542C22.0841 502.335 20.6618 502.731 19.2208 502.675C18.5247 502.548 17.8898 502.195 17.4146 501.671C16.9394 501.146 16.6503 500.48 16.592 499.775H16.1161C15.8229 500.286 15.6428 500.853 15.5881 501.44C15.5334 502.026 15.6052 502.618 15.7988 503.174C15.8549 503.402 15.9269 503.625 16.0141 503.843L16.2294 504.42Z" fill="#E0E4FF"/>
<path d="M55.9677 489.735C55.707 489.033 54.9139 487.469 53.8827 485.486C53.2544 486.433 52.5454 487.324 51.7638 488.149C51.248 488.554 50.665 488.864 50.0415 489.067C51.7638 490.869 52.9423 492.047 52.9423 492.047C52.9423 492.047 57.0441 492.602 55.9677 489.735Z" fill="#AA6396"/>
<path d="M47.7412 487.616L49.2596 489.883C49.2596 489.883 53.7014 491.956 54.8118 486.347L53.3954 483.469L52.8855 483.571C52.8855 483.571 53.1348 486.347 51.0725 486.801C50.1057 487.084 49.0889 487.153 48.0925 487.005L47.7412 487.616Z" fill="#E0E4FF"/>
<path d="M21.7818 517.202L22.133 512.601C22.17 512.365 22.1466 512.124 22.0651 511.899C21.7476 512.162 21.3442 512.299 20.9319 512.284C19.8304 512.344 18.7259 512.26 17.6459 512.035C17.5779 513.701 16.3882 515.015 15.2551 516.227C14.0201 517.344 12.9685 518.648 12.139 520.091C12.0598 520.218 12.0096 520.362 11.9919 520.51C11.9743 520.659 11.9897 520.81 12.037 520.952C12.207 521.281 12.6376 521.36 13.0115 521.372C14.6613 521.355 16.2797 520.918 17.7139 520.103C19.154 519.259 20.5154 518.289 21.7818 517.202Z" fill="#4B4590"/>
<path d="M37.2601 396.039C38.205 396.039 38.9711 394.583 38.9711 392.787C38.9711 390.991 38.205 389.535 37.2601 389.535C36.3151 389.535 35.5491 390.991 35.5491 392.787C35.5491 394.583 36.3151 396.039 37.2601 396.039Z" fill="#AA6396"/>
<path d="M29.5775 384.062C27.89 384.068 26.2436 384.583 24.8529 385.539C23.4623 386.495 22.3921 387.848 21.7817 389.421C23.4541 390.204 25.284 390.592 27.13 390.554C27.7985 390.554 33.7927 389.739 33.5321 388.685C33.857 389.988 34.3563 391.242 35.0164 392.413C35.0358 391.772 35.2697 391.157 35.6807 390.666C36.0917 390.175 36.6559 389.836 37.2827 389.705H37.4979C36.928 388.057 35.8589 386.629 34.4394 385.618C33.0198 384.606 31.3205 384.062 29.5775 384.062Z" fill="#4B4590"/>
<path d="M55.3897 464.342C57.0794 464.342 58.4491 462.973 58.4491 461.283C58.4491 459.593 57.0794 458.224 55.3897 458.224C53.7001 458.224 52.3303 459.593 52.3303 461.283C52.3303 462.973 53.7001 464.342 55.3897 464.342Z" fill="#AA6396"/>
<path d="M15.4703 450.518C17.1599 450.518 18.5297 449.149 18.5297 447.459C18.5297 445.769 17.1599 444.4 15.4703 444.4C13.7806 444.4 12.4109 445.769 12.4109 447.459C12.4109 449.149 13.7806 450.518 15.4703 450.518Z" fill="#AA6396"/>
<path d="M58.7437 466.291L44.8858 474.336L42.9028 497.304L51.0952 502.46L67.7179 491.9L66.5395 467.209L63.3668 467.866L61.1232 464.966L58.7437 466.291Z" fill="#818FFF"/>
<path d="M44.8858 474.336L47.2653 478.959L51.3558 476.591L51.0952 502.46L42.9028 497.304L44.8858 474.336Z" fill="#F1F1FF"/>
<path d="M51.3558 476.591L66.5395 467.209L67.7179 491.9L51.0952 502.46L51.3558 476.591Z" fill="#E0E4FF"/>
<path d="M57.5966 477.811C57.6902 477.199 57.4853 476.659 57.1388 476.606C56.7924 476.553 56.4357 477.007 56.3421 477.619C56.2485 478.232 56.4534 478.771 56.7999 478.824C57.1463 478.877 57.503 478.424 57.5966 477.811Z" fill="#0F0F6A"/>
<path d="M62.5687 474.762C62.6624 474.15 62.4575 473.611 62.1111 473.558C61.7647 473.505 61.4079 473.958 61.3142 474.57C61.2205 475.183 61.4254 475.722 61.7718 475.775C62.1182 475.828 62.475 475.375 62.5687 474.762Z" fill="#0F0F6A"/>
<path d="M42.9028 497.304L47.1293 495.729L51.0952 502.46L42.9028 497.304Z" fill="#E0E4FF"/>
<path d="M56.9647 478.008C56.8896 478.008 56.8175 477.978 56.7644 477.925C56.7113 477.872 56.6814 477.799 56.6814 477.724V461.861C56.6805 461.793 56.7041 461.727 56.7478 461.675C56.7914 461.623 56.8523 461.588 56.9194 461.578C56.9851 461.565 57.0531 461.577 57.1112 461.61C57.1692 461.643 57.2137 461.696 57.2366 461.759L62.177 474.518C62.204 474.588 62.2019 474.667 62.1711 474.736C62.1403 474.805 62.0833 474.859 62.0127 474.886C61.9777 474.899 61.9405 474.906 61.903 474.905C61.8656 474.904 61.8287 474.895 61.7945 474.88C61.7255 474.849 61.6715 474.792 61.6444 474.722L57.2593 463.391V477.69C57.2643 477.731 57.2603 477.773 57.2476 477.812C57.2349 477.851 57.2137 477.887 57.1857 477.917C57.1576 477.948 57.1233 477.971 57.0852 477.987C57.047 478.003 57.0059 478.01 56.9647 478.008Z" fill="#0F0F6A"/>
<path d="M57.2592 477.872C57.1841 477.872 57.112 477.842 57.0589 477.789C57.0058 477.736 56.9759 477.664 56.9759 477.588L56.6587 464.739C56.6571 464.701 56.6633 464.663 56.6769 464.627C56.6904 464.591 56.7111 464.559 56.7375 464.531C56.764 464.504 56.7957 464.482 56.8309 464.467C56.866 464.452 56.9038 464.444 56.942 464.444C57.0171 464.444 57.0891 464.474 57.1423 464.527C57.1954 464.58 57.2252 464.652 57.2252 464.728L57.5425 477.577C57.544 477.615 57.5378 477.653 57.5243 477.689C57.5107 477.725 57.4901 477.757 57.4636 477.785C57.4372 477.812 57.4054 477.834 57.3703 477.849C57.3352 477.864 57.2974 477.872 57.2592 477.872Z" fill="#0F0F6A"/>
<path d="M141.087 285.255L142.299 284.042L201.164 318.035L201.108 335.633L199.895 336.834L141.087 285.255Z" fill="#3A309A"/>
<path d="M142.299 284.042V301.639L201.221 335.633V318.035L142.299 284.042ZM164.202 306.33L167.771 308.393V310.897C167.771 311.078 167.771 311.169 167.681 311.203C167.59 311.237 167.533 311.203 167.409 311.203C167.533 311.203 167.624 311.282 167.681 311.203C167.737 311.123 167.771 311.078 167.771 310.897V308.393L164.202 306.33ZM161.936 299.6V300.824V299.6ZM161.845 308.019L162.253 308.211C162.412 308.279 162.536 308.302 162.593 308.211C162.593 308.325 162.412 308.313 162.253 308.211L161.845 308.019V309.152V308.019ZM154.899 303.849C155.058 303.962 155.217 304.064 155.386 304.166C155.55 304.259 155.72 304.339 155.896 304.404C155.72 304.339 155.55 304.259 155.386 304.166C155.239 304.053 155.081 303.951 154.922 303.838L154.899 303.849ZM156.644 304.415C156.549 304.462 156.444 304.486 156.338 304.486C156.232 304.486 156.128 304.462 156.032 304.415C156.123 304.462 156.223 304.488 156.324 304.492C156.426 304.496 156.528 304.477 156.622 304.438L156.644 304.415ZM156.644 300.688L156.214 300.268L155.556 299.645C155.192 299.327 154.892 298.943 154.673 298.512C154.59 298.311 154.547 298.095 154.548 297.877C154.547 298.095 154.59 298.311 154.673 298.512C154.892 298.943 155.192 299.327 155.556 299.645L156.214 300.268L156.644 300.688C156.934 300.973 157.206 301.276 157.46 301.594C157.199 301.275 156.919 300.973 156.622 300.688H156.644ZM157.664 297.288C157.125 296.764 156.524 296.307 155.874 295.929C156.523 296.303 157.124 296.756 157.664 297.277V297.288ZM154.673 295.373C154.369 295.284 154.047 295.284 153.743 295.373C154.047 295.284 154.369 295.284 154.673 295.373ZM163.794 310.251L164.927 310.897L163.794 310.251ZM170.015 312.608L169.301 312.143L170.015 312.608ZM170.106 304.246L167.057 302.489L170.106 304.246Z" fill="#3A309A"/>
<path opacity="0.8" d="M186.144 316.849C187.379 317.563 188.127 318.22 188.116 319.716C188.116 321.008 187.368 321.008 186.269 320.373L185.363 319.852V316.453L186.144 316.849Z" fill="#837DFF"/>
<path d="M176.054 309.48C177.935 310.614 179.612 312.88 179.601 316.54C179.601 319.86 178.094 320.653 175.884 319.384C174.695 318.642 173.729 317.592 173.089 316.345C172.448 315.098 172.157 313.701 172.247 312.302C172.27 308.597 174.298 308.461 176.054 309.48ZM175.986 317.967C177.584 318.885 178.049 317.412 178.049 315.701C178.049 314.228 177.72 311.939 175.986 310.942C174.253 309.945 173.845 311.429 173.833 313.152C173.822 314.874 174.173 316.936 175.986 317.99" fill="#F1F1FF"/>
<path opacity="0.8" d="M175.975 310.92C177.709 311.917 178.049 314.206 178.037 315.679C178.037 317.412 177.573 318.885 175.975 317.945C174.162 316.902 173.811 314.761 173.822 313.106C173.833 311.452 174.366 309.99 175.975 310.92Z" fill="#837DFF"/>
<path d="M154.662 297.118C155.55 297.641 156.35 298.303 157.03 299.079V301.254L155.738 300.608V299.77C155.75 299.652 155.733 299.534 155.688 299.425C155.642 299.316 155.57 299.22 155.477 299.147C155.228 298.921 154.954 298.724 154.662 298.557C153.914 298.127 153.336 298.138 153.336 299.033C153.336 299.928 154.061 300.597 155.001 301.481C155.67 301.981 156.225 302.617 156.63 303.347C157.034 304.078 157.279 304.886 157.347 305.719C157.347 307.622 156.033 307.917 154.288 306.908C153.334 306.365 152.476 305.668 151.749 304.846V302.58L153.041 303.226V304.11C153.028 304.229 153.045 304.349 153.09 304.46C153.136 304.571 153.209 304.669 153.302 304.744C153.578 304.996 153.883 305.217 154.208 305.401C155.035 305.877 155.715 305.968 155.727 304.88C155.727 303.974 155.013 303.294 154.129 302.512C152.883 301.379 151.727 300.155 151.738 298.308C151.749 296.461 152.917 296.121 154.662 297.118Z" fill="#F1F1FF"/>
<path d="M168.893 305.571V306.704L168.474 306.512C168.259 306.421 168.111 306.421 168.111 306.761V313.435L168.825 313.9V315.123L165.777 313.367V312.234L166.196 312.427C166.434 312.529 166.559 312.517 166.559 312.155V309.65L162.99 307.588V310.512L163.726 310.976V312.2L160.678 310.444V309.311L161.086 309.503C161.301 309.594 161.449 309.594 161.46 309.311V302.58L160.746 302.115V300.812L163.794 302.569V303.702L163.386 303.509C163.148 303.396 163.001 303.407 163.001 303.77V306.036L166.57 308.098V305.435L165.845 304.971V303.758L168.893 305.571Z" fill="#F1F1FF"/>
<path d="M186.411 321.888L185.335 321.265V323.361L186.547 324.109V325.333L183.023 323.293V322.16L183.443 322.353C183.658 322.443 183.805 322.443 183.805 322.16V315.429L183.091 314.965V313.741L186.695 315.815C187.567 316.253 188.305 316.92 188.829 317.744C189.354 318.568 189.646 319.518 189.675 320.494C189.675 322.681 188.349 322.987 186.411 321.888ZM185.358 316.426V319.826L186.264 320.347C187.397 320.982 188.111 320.982 188.111 319.69C188.111 318.205 187.375 317.537 186.139 316.823L185.369 316.381" fill="#F1F1FF"/>
<path d="M141.087 285.255L200.009 319.248V336.845L141.087 302.852V285.255ZM168.893 306.704V305.571L165.845 303.815V305.039L166.571 305.503V308.166L163.001 306.104V303.838C163.001 303.475 163.137 303.475 163.386 303.577L163.794 303.77V302.637L160.746 300.88V302.104L161.46 302.569V309.299C161.46 309.582 161.302 309.582 161.086 309.492L160.678 309.299V310.432L163.726 312.189V310.965L162.99 310.5V307.577L166.559 309.639V312.143C166.559 312.506 166.435 312.517 166.197 312.415L165.777 312.223V313.356L168.825 315.112V313.888L168.112 313.424V306.75C168.112 306.398 168.259 306.398 168.474 306.5L168.893 306.693V306.704ZM175.896 319.384C178.106 320.653 179.601 319.86 179.613 316.54C179.613 312.868 177.936 310.557 176.066 309.48C174.196 308.404 172.27 308.597 172.259 312.302C172.169 313.701 172.46 315.098 173.1 316.345C173.741 317.592 174.707 318.642 175.896 319.384ZM186.423 321.888C188.326 323.021 189.686 322.67 189.697 320.472C189.669 319.495 189.377 318.545 188.852 317.721C188.327 316.897 187.59 316.231 186.717 315.792L183.114 313.718V314.942L183.828 315.407V322.137C183.828 322.421 183.68 322.421 183.465 322.33L183.046 322.137V323.27L186.57 325.31V324.086L185.357 323.338V321.242L186.434 321.865L186.423 321.888ZM154.31 306.886C156.044 307.883 157.358 307.6 157.37 305.696C157.301 304.864 157.057 304.055 156.652 303.325C156.248 302.594 155.693 301.958 155.024 301.458C154.084 300.574 153.347 299.906 153.358 299.011C153.37 298.115 153.936 298.104 154.684 298.535C154.977 298.701 155.25 298.899 155.5 299.124C155.592 299.197 155.665 299.293 155.71 299.402C155.756 299.511 155.773 299.63 155.761 299.747V300.586L157.052 301.231V299.056C156.373 298.28 155.573 297.619 154.684 297.096C152.939 296.087 151.761 296.484 151.749 298.229C151.738 299.974 152.883 301.322 154.14 302.433C155.024 303.214 155.738 303.894 155.738 304.801C155.738 305.934 155.058 305.798 154.22 305.322C153.894 305.137 153.59 304.917 153.313 304.665C153.22 304.589 153.147 304.492 153.102 304.381C153.056 304.27 153.039 304.149 153.053 304.03V303.146L151.761 302.501V304.767C152.488 305.589 153.345 306.286 154.299 306.829" fill="#837DFF"/>
<path d="M159.766 95.6866L173.214 211.768L254.959 257.608L279.298 262.781L314.376 113.023L303.338 123.98L256.747 145.581L216.933 142.616L177.754 131.392L159.766 95.6866Z" fill="url(#paint6_linear)" fill-opacity="0.5"/>
<g filter="url(#filter0_d)">
<g filter="url(#filter1_b)">
<path d="M279.928 65.7411C294.326 68.6958 305.208 76.0433 307.931 84.6493L315.036 107.102C317.477 114.815 312.986 122.389 303.146 127.151L268.4 143.97C258.56 148.733 244.755 150.017 231.85 147.368L194.285 139.66C179.887 136.705 169.006 129.357 166.282 120.751L159.178 98.2986C156.737 90.5853 161.228 83.0122 171.067 78.2494L205.814 61.4304C215.653 56.6676 229.459 55.384 242.364 58.0323L279.928 65.7411Z" fill="#837DFF" fill-opacity="0.4"/>
<path d="M278.963 67.7407C292.002 70.4164 301.856 77.0702 304.322 84.8636L311.427 107.316C313.637 114.301 309.57 121.159 300.66 125.473L265.914 142.291C257.003 146.605 244.501 147.767 232.815 145.369L195.25 137.66C182.212 134.984 172.357 128.33 169.891 120.537L162.787 98.0843C160.576 91.0993 164.643 84.2412 173.554 79.9282L208.3 63.1092C217.21 58.7961 229.713 57.6338 241.399 60.0319L278.963 67.7407Z" stroke="white" stroke-width="6"/>
</g>
<path d="M257.634 92.6429L208.918 116.096M257.634 92.6429L279.08 107.126M257.634 92.6429L236.126 78.1099" stroke="white" stroke-width="6" stroke-linecap="round"/>
</g>
<defs>
<filter id="filter0_d" x="98.5242" y="0.676704" width="277.165" height="212.047" filterUnits="userSpaceOnUse" color-interpolation-filters="sRGB">
<feFlood flood-opacity="0" result="BackgroundImageFix"/>
<feColorMatrix in="SourceAlpha" type="matrix" values="0 0 0 0 0 0 0 0 0 0 0 0 0 0 0 0 0 0 127 0"/>
<feOffset dy="4"/>
<feGaussianBlur stdDeviation="30"/>
<feColorMatrix type="matrix" values="0 0 0 0 0.400906 0 0 0 0 0.367819 0 0 0 0 0.818641 0 0 0 1 0"/>
<feBlend mode="normal" in2="BackgroundImageFix" result="effect1_dropShadow"/>
<feBlend mode="normal" in="SourceGraphic" in2="effect1_dropShadow" result="shape"/>
</filter>
<filter id="filter1_b" x="134.524" y="32.6767" width="205.165" height="140.047" filterUnits="userSpaceOnUse" color-interpolation-filters="sRGB">
<feFlood flood-opacity="0" result="BackgroundImageFix"/>
<feGaussianBlur in="BackgroundImage" stdDeviation="12"/>
<feComposite in2="SourceAlpha" operator="in" result="effect1_backgroundBlur"/>
<feBlend mode="normal" in="SourceGraphic" in2="effect1_backgroundBlur" result="shape"/>
</filter>
<linearGradient id="paint0_linear" x1="211.368" y1="157.134" x2="211.368" y2="304.033" gradientUnits="userSpaceOnUse">
<stop stop-color="#3A309A"/>
<stop offset="1" stop-color="#1F195C"/>
</linearGradient>
<linearGradient id="paint1_linear" x1="248.318" y1="205.641" x2="219.479" y2="308.415" gradientUnits="userSpaceOnUse">
<stop stop-color="#737AFF"/>
<stop offset="1" stop-color="#737AFF" stop-opacity="0"/>
</linearGradient>
<linearGradient id="paint2_linear" x1="167.885" y1="335.134" x2="167.885" y2="467.889" gradientUnits="userSpaceOnUse">
<stop stop-color="#4840AD"/>
<stop offset="1" stop-color="#2E2891"/>
</linearGradient>
<linearGradient id="paint3_linear" x1="187.998" y1="358.51" x2="187.998" y2="467.889" gradientUnits="userSpaceOnUse">
<stop stop-color="#837DFF"/>
<stop offset="0.81768" stop-color="#9092FF" stop-opacity="0.5"/>
</linearGradient>
<linearGradient id="paint4_linear" x1="314.246" y1="454.16" x2="325.408" y2="428.508" gradientUnits="userSpaceOnUse">
<stop stop-color="#737AFF"/>
<stop offset="1" stop-color="#B9BCFF"/>
</linearGradient>
<linearGradient id="paint5_linear" x1="345.596" y1="470.689" x2="356.754" y2="445.037" gradientUnits="userSpaceOnUse">
<stop stop-color="#737AFF"/>
<stop offset="1" stop-color="#B9BCFF"/>
</linearGradient>
<linearGradient id="paint6_linear" x1="237.071" y1="51.2023" x2="237.071" y2="270.633" gradientUnits="userSpaceOnUse">
<stop offset="0.0364168" stop-color="white"/>
<stop offset="0.922559" stop-color="white" stop-opacity="0"/>
</linearGradient>
</defs>
</svg>
